<?xml version="1.0" encoding="iso-8859-1"?>
<!-- Generator: Adobe Illustrator 19.0.0, SVG Export Plug-In . SVG Version: 6.00 Build 0)  -->
<svg version="1.1" id="Layer_1" xmlns="http://www.w3.org/2000/svg" xmlns:xlink="http://www.w3.org/1999/xlink" x="0px" y="0px"
	 viewBox="0 0 512 512" style="enable-background:new 0 0 512 512;" xml:space="preserve">
<path style="fill:#F95428;" d="M360.397,500.079c0-41.864,33.937-75.802,75.802-75.802S512,458.215,512,500.079"/>
<path style="fill:#2BA5F7;" d="M0,500.079c0-41.864,33.937-75.802,75.802-75.802s75.802,33.937,75.802,75.802"/>
<path style="fill:#F7B239;" d="M180.198,500.079c0-41.864,33.937-75.802,75.802-75.802s75.802,33.937,75.802,75.802"/>
<g>
	<circle style="fill:#E6E6E6;" cx="75.806" cy="380.044" r="50.406"/>
	<circle style="fill:#E6E6E6;" cx="256.006" cy="380.044" r="50.406"/>
	<circle style="fill:#E6E6E6;" cx="436.192" cy="380.044" r="50.406"/>
</g>
<path style="fill:#B3B3B3;" d="M291.298,183.483v10.729c0,16.562-13.43,29.98-29.992,29.98h-10.618
	c-16.562,0-29.98-13.418-29.98-29.98v-10.729H291.298z"/>
<path style="fill:#F7B239;" d="M330.798,86.711c0,20.262-8.053,38.637-21.137,52.104c-11.654,11.999-18.363,27.933-18.363,44.667
	h-70.59c0-16.76-6.77-32.693-18.424-44.729c-12.838-13.233-20.817-31.201-21.076-51.031c-0.543-41.079,32.631-75.227,73.71-75.794
	C296.724,11.337,330.798,45.041,330.798,86.711z"/>
<path style="fill:#B27214;" d="M292.623,80.449c-3.612-3.612-9.469-3.612-13.08,0l-23.544,23.544l-23.542-23.544
	c-3.612-3.612-9.469-3.612-13.08,0c-3.612,3.612-3.612,9.469,0,13.08l27.374,27.374v62.576h18.498v-62.576l27.374-27.374
	C296.235,89.917,296.235,84.06,292.623,80.449z"/>
<g>
	<path style="fill:#B3B3B3;" d="M106.049,304.354c-1.579,0-3.156-0.602-4.361-1.805c-2.408-2.409-2.408-6.313,0-8.72l55.493-55.493
		c2.408-2.407,6.312-2.407,8.72,0c2.408,2.408,2.408,6.313,0,8.72l-55.493,55.493C109.205,303.752,107.627,304.354,106.049,304.354z
		"/>
	<path style="fill:#B3B3B3;" d="M405.951,304.354c-1.579,0-3.156-0.602-4.361-1.805l-55.493-55.493c-2.409-2.408-2.409-6.313,0-8.72
		c2.408-2.407,6.312-2.407,8.72,0l55.493,55.493c2.408,2.409,2.408,6.313,0,8.72C409.107,303.752,407.53,304.354,405.951,304.354z"
		/>
	<path style="fill:#B3B3B3;" d="M255.999,306.204c-3.405,0-6.166-2.761-6.166-6.166v-35.305c0-3.405,2.761-6.166,6.166-6.166
		s6.166,2.761,6.166,6.166v35.305C262.166,303.442,259.404,306.204,255.999,306.204z"/>
</g>
<g>
	<rect x="220.711" y="174.231" style="fill:#808080;" width="70.59" height="18.498"/>
	<circle style="fill:#808080;" cx="415.092" cy="359.301" r="9.249"/>
	<circle style="fill:#808080;" cx="449.006" cy="359.301" r="9.249"/>
	<circle style="fill:#808080;" cx="239.049" cy="359.301" r="9.249"/>
	<circle style="fill:#808080;" cx="272.962" cy="359.301" r="9.249"/>
	<circle style="fill:#808080;" cx="96.907" cy="359.301" r="9.249"/>
	<circle style="fill:#808080;" cx="62.993" cy="359.301" r="9.249"/>
</g>
<g>
</g>
<g>
</g>
<g>
</g>
<g>
</g>
<g>
</g>
<g>
</g>
<g>
</g>
<g>
</g>
<g>
</g>
<g>
</g>
<g>
</g>
<g>
</g>
<g>
</g>
<g>
</g>
<g>
</g>
</svg>
