<svg xmlns="http://www.w3.org/2000/svg" xmlns:xlink="http://www.w3.org/1999/xlink" viewBox="0 0 369.95 315.77"><defs><linearGradient id="linear-gradient" x1="202.13" y1="120.81" x2="219.13" y2="120.81" gradientUnits="userSpaceOnUse"><stop offset="0" stop-color="#fb9a2b"/><stop offset="1" stop-color="#e65925"/></linearGradient><linearGradient id="Íîâûé_îáðàçåö_ãðàäèåíòà_9" x1="366.87" y1="94.42" x2="408.49" y2="94.42" gradientUnits="userSpaceOnUse"><stop offset="0" stop-color="#53cd9f"/><stop offset="1" stop-color="#0d7a5c"/></linearGradient><linearGradient id="Íîâûé_îáðàçåö_ãðàäèåíòà_9-2" x1="322.72" y1="79.52" x2="364.33" y2="79.52" xlink:href="#Íîâûé_îáðàçåö_ãðàäèåíòà_9"/><linearGradient id="linear-gradient-2" x1="339.27" y1="35.44" x2="369.95" y2="35.44" xlink:href="#linear-gradient"/><linearGradient id="linear-gradient-3" x1="227.78" y1="51.43" x2="293.76" y2="51.43" xlink:href="#linear-gradient"/><linearGradient id="Degradado_sin_nombre_43" x1="260.77" y1="-10.36" x2="260.77" y2="76.81" gradientUnits="userSpaceOnUse"><stop offset="0.02" stop-color="#fff"/><stop offset="0.51" stop-color="#fff" stop-opacity="0"/></linearGradient><linearGradient id="Degradado_sin_nombre_48" x1="199.09" y1="96.78" x2="199.09" y2="74.76" gradientUnits="userSpaceOnUse"><stop offset="0" stop-color="#212852"/><stop offset="1" stop-color="#333961"/></linearGradient><linearGradient id="Íîâûé_îáðàçåö_ãðàäèåíòà_9-3" x1="88.93" y1="25.47" x2="198.26" y2="25.47" xlink:href="#Íîâûé_îáðàçåö_ãðàäèåíòà_9"/><linearGradient id="Íîâûé_îáðàçåö_ãðàäèåíòà_9-4" x1="82.93" y1="100.97" x2="119.93" y2="100.97" xlink:href="#Íîâûé_îáðàçåö_ãðàäèåíòà_9"/><linearGradient id="linear-gradient-4" x1="26.25" y1="88.95" x2="53.25" y2="88.95" xlink:href="#linear-gradient"/><linearGradient id="linear-gradient-5" x1="61.95" y1="89.03" x2="109.45" y2="89.03" xlink:href="#linear-gradient"/><linearGradient id="Degradado_sin_nombre_3" x1="334.89" y1="156.96" x2="334.89" y2="156.96" gradientUnits="userSpaceOnUse"><stop offset="0" stop-color="#e400fb"/><stop offset="0.37" stop-color="#8200fc"/><stop offset="0.42" stop-color="#7c10fc"/><stop offset="0.52" stop-color="#6c39fb"/><stop offset="0.66" stop-color="#537afb"/><stop offset="0.77" stop-color="#3eb2fa"/><stop offset="1" stop-color="#3eb2fa" stop-opacity="0"/></linearGradient><linearGradient id="Íîâûé_îáðàçåö_ãðàäèåíòà_9-5" x1="212.29" y1="203.16" x2="220.01" y2="203.16" xlink:href="#Íîâûé_îáðàçåö_ãðàäèåíòà_9"/><linearGradient id="Íîâûé_îáðàçåö_ãðàäèåíòà_9-6" x1="199" y1="169.91" x2="211.55" y2="169.91" xlink:href="#Íîâûé_îáðàçåö_ãðàäèåíòà_9"/><linearGradient id="Íîâûé_îáðàçåö_ãðàäèåíòà_9-7" x1="198.28" y1="203.7" x2="212.98" y2="203.7" xlink:href="#Íîâûé_îáðàçåö_ãðàäèåíòà_9"/><linearGradient id="Íîâûé_îáðàçåö_ãðàäèåíòà_9-8" x1="199.68" y1="203.7" x2="212.98" y2="203.7" xlink:href="#Íîâûé_îáðàçåö_ãðàäèåíòà_9"/><linearGradient id="linear-gradient-6" x1="327.91" y1="176.72" x2="384.37" y2="176.72" xlink:href="#linear-gradient"/><linearGradient id="linear-gradient-7" x1="322" y1="168.69" x2="348.51" y2="168.69" xlink:href="#linear-gradient"/><linearGradient id="linear-gradient-8" x1="100.58" y1="199.79" x2="132.57" y2="199.79" xlink:href="#linear-gradient"/><linearGradient id="Degradado_sin_nombre_48-2" x1="84.04" y1="173.16" x2="145.39" y2="173.16" xlink:href="#Degradado_sin_nombre_48"/></defs><title>main2</title><g style="isolation:isolate"><g id="Layer_1" data-name="Layer 1"><path d="M217,118.65h-4.18v-4.18a2.16,2.16,0,1,0-4.32,0v4.18h-4.18a2.16,2.16,0,0,0,0,4.32h4.18v4.18a2.16,2.16,0,1,0,4.32,0V123H217A2.16,2.16,0,1,0,217,118.65Z" transform="translate(-61.68 -12.02)" style="fill:url(#linear-gradient)"/><path d="M400.06,105.45l5.38,0.63,2.3-4.65L404,97.54l0.27-4.08,4.25-3.36-1.66-4.91-5.42-.08L398.71,82l0.63-5.38-4.65-2.3-3.89,3.78-4.08-.27-3.36-4.25-4.91,1.67-0.08,5.42-3.07,2.69-5.38-.63-2.3,4.65,3.78,3.89-0.27,4.08-4.25,3.36,1.66,4.91,5.42,0.08,2.69,3.07L376,112.19l4.65,2.3,3.89-3.78,4.08,0.27,3.36,4.25,4.91-1.67,0.08-5.42Zm-5-2.6a11.21,11.21,0,1,1,1-15.81A11.21,11.21,0,0,1,395.07,102.85Z" transform="translate(-61.68 -12.02)" style="fill:url(#Íîâûé_îáðàçåö_ãðàäèåíòà_9)"/><path d="M355.9,90.54l5.38,0.63,2.3-4.65-3.78-3.89,0.27-4.08,4.25-3.36-1.66-4.91-5.42-.08-2.69-3.07,0.63-5.38-4.65-2.3-3.89,3.78L342.57,63l-3.36-4.25-4.91,1.67-0.08,5.42-3.07,2.69-5.38-.63-2.3,4.65,3.78,3.89L327,80.47l-4.25,3.36,1.66,4.91,5.42,0.08,2.69,3.07-0.63,5.38,4.65,2.3,3.89-3.78,4.08,0.27,3.36,4.25,4.91-1.67,0.08-5.42Zm-5-2.6a11.21,11.21,0,1,1,1-15.81A11.21,11.21,0,0,1,350.91,87.94Z" transform="translate(-61.68 -12.02)" style="fill:url(#Íîâûé_îáðàçåö_ãðàäèåíòà_9-2)"/><polygon points="360.09 12.93 339.27 39.61 353.92 40.07 347.91 57.95 369.95 29.74 354.69 29.89 360.09 12.93" style="fill:url(#linear-gradient-2)"/><path d="M293.76,45a33,33,0,1,0-58.7,20.65,39.24,39.24,0,0,1,8.86,24.56v0.62h33.72V90.22A38.08,38.08,0,0,1,286.23,66,32.84,32.84,0,0,0,293.76,45Z" transform="translate(-61.68 -12.02)" style="fill:url(#linear-gradient-3)"/><path d="M288.4,49.3A27.87,27.87,0,0,0,260.77,17h-0.7A27.94,27.94,0,0,0,233.12,49.3H288.4Z" transform="translate(-61.68 -12.02)" style="fill:url(#Degradado_sin_nombre_43)"/><path d="M259.33,90.81h-1.91V55.72a4.52,4.52,0,1,0-4.52,4.52h2.16v1.91H252.9a6.43,6.43,0,1,1,6.43-6.43V90.81Z" transform="translate(-61.68 -12.02)" style="fill:#fff"/><path d="M264.21,90.81h-1.91V55.72a6.43,6.43,0,1,1,6.43,6.43h-2.16V60.25h2.16a4.52,4.52,0,1,0-4.52-4.52V90.81Z" transform="translate(-61.68 -12.02)" style="fill:#fff"/><path d="M182.37,78.67H215.8a0,0,0,0,1,0,0V93.34a8,8,0,0,1-8,8H190.33a8,8,0,0,1-8-8V78.67A0,0,0,0,1,182.37,78.67Z" style="fill:url(#Degradado_sin_nombre_48)"/><path d="M189.38,100.82h19.41a0,0,0,0,1,0,0v3.65a3.5,3.5,0,0,1-3.5,3.5H192.88a3.5,3.5,0,0,1-3.5-3.5v-3.65A0,0,0,0,1,189.38,100.82Z" style="fill:#181f41"/><path d="M37.25,6.45h89.33a10,10,0,0,1,10,10V54.59a7.85,7.85,0,0,1-7.85,7.85H35.1a7.85,7.85,0,0,1-7.85-7.85V16.45a10,10,0,0,1,10-10Z" style="fill:#d9dfff"/><path d="M198.26,32.47v-4a10,10,0,0,0-10-10H98.93a10,10,0,0,0-10,10v4H198.26Z" transform="translate(-61.68 -12.02)" style="fill:url(#Íîâûé_îáðàçåö_ãðàäèåíòà_9-3)"/><circle cx="38.58" cy="13.78" r="2.67" style="fill:#fff"/><circle cx="48.58" cy="13.78" r="2.67" style="fill:#fff"/><circle cx="58.58" cy="13.78" r="2.67" style="fill:#fff"/><rect x="39.95" y="28.45" width="88.29" height="4.5" style="fill:#fff"/><rect x="39.95" y="37.45" width="88.29" height="4.5" style="fill:#fff"/><rect x="39.95" y="46.45" width="88.29" height="4.5" style="fill:#fff"/><rect x="34.62" y="78.45" width="101.67" height="20.67" rx="5.67" ry="5.67" style="fill:#e8ebff"/><path d="M101.43,119.47a18.5,18.5,0,1,1,18.5-18.5A18.52,18.52,0,0,1,101.43,119.47Z" transform="translate(-61.68 -12.02)" style="fill:url(#Íîâûé_îáðàçåö_ãðàäèåíòà_9-4)"/><circle cx="39.75" cy="88.95" r="13.5" style="fill:url(#linear-gradient-4)"/><path d="M107.67,101.73l-9.41,5.67a0.88,0.88,0,0,1-1.34-.76V95.31a0.88,0.88,0,0,1,1.34-.76l9.41,5.67A0.88,0.88,0,0,1,107.67,101.73Z" transform="translate(-61.68 -12.02)" style="fill:#fff"/><rect x="61.95" y="86.78" width="66.25" height="4.5" style="fill:#bebfd1;mix-blend-mode:multiply"/><rect x="61.95" y="86.78" width="47.5" height="4.5" style="fill:url(#linear-gradient-5)"/><ellipse cx="173" cy="305.77" rx="173" ry="10" style="fill:#c9cbdd"/><path d="M334.89,157" transform="translate(-61.68 -12.02)" style="fill:none;stroke-linecap:round;stroke-linejoin:round;stroke-width:2px;stroke:url(#Degradado_sin_nombre_3)"/><path d="M216.4,208h-4.12V198.3h4.12a3.61,3.61,0,0,1,3.61,3.61v2.5A3.61,3.61,0,0,1,216.4,208Zm-2.7-1.41h2.7a2.2,2.2,0,0,0,2.2-2.2v-2.5a2.2,2.2,0,0,0-2.2-2.2h-2.7v6.9Z" transform="translate(-61.68 -12.02)" style="fill:url(#Íîâûé_îáðàçåö_ãðàäèåíòà_9-5)"/><path d="M211.51,149.84a8.06,8.06,0,0,0-4.36,3.07,9.61,9.61,0,0,0-1.81,4.37c-0.46,3.13.36,6.5,1.44,10.09,0.26,0.91.56,1.84,0.85,2.8s0.57,1.95.82,3a26.43,26.43,0,0,1,.86,6.5,15.2,15.2,0,0,1-1.52,6.67A9.56,9.56,0,0,1,203,191l-0.44-.51a11.44,11.44,0,0,0,1.67-5.25,17,17,0,0,0-.42-5.16c-0.76-3.42-2.36-6.85-3.6-10.88-0.3-1-.57-2.06-0.79-3.14a25.58,25.58,0,0,1-.43-3.33,16.23,16.23,0,0,1,1-7,11.63,11.63,0,0,1,4.66-5.57,9.48,9.48,0,0,1,3.37-1.29,6.83,6.83,0,0,1,3.46.27Z" transform="translate(-61.68 -12.02)" style="fill:url(#Íîâûé_îáðàçåö_ãðàäèåíòà_9-6)"/><path d="M209.16,195.43H198.28V207.9a4.08,4.08,0,0,0,4.07,4.07h6.57A4.07,4.07,0,0,0,213,207.9V195.43h-3.82Z" transform="translate(-61.68 -12.02)" style="fill:url(#Íîâûé_îáðàçåö_ãðàäèåíòà_9-7)"/><path d="M209.16,195.43V206.9a4.07,4.07,0,0,1-4.07,4.07h-5.41a4.05,4.05,0,0,0,2.66,1h6.57A4.07,4.07,0,0,0,213,207.9V195.43h-3.82Z" transform="translate(-61.68 -12.02)" style="fill:url(#Íîâûé_îáðàçåö_ãðàäèåíòà_9-8)"/><rect x="221.58" y="237.45" width="3.96" height="62.09" style="fill:#006669"/><path d="M289.81,251.37l-43.47-.59-3.65-62.41a13.88,13.88,0,0,1,13.94-14.63l25.9-.26c11.36,0,17.43,10.47,15.8,21.71Z" transform="translate(-61.68 -12.02)" style="fill:#00c2c7"/><path d="M187.62,222.59h26.32a14.24,14.24,0,0,1,14.24,14.24v2.6a0,0,0,0,1,0,0H173.38a0,0,0,0,1,0,0v-2.6A14.24,14.24,0,0,1,187.62,222.59Z" style="fill:#008386"/><rect x="176.02" y="237.45" width="3.96" height="62.09" style="fill:#006669"/><path d="M278.15,140.89a10.1,10.1,0,0,1,9.71,5.93c3.07,7.14-2.87,15.51-.63,23,0.93,3.09,3.15,5.58,5.06,8.18s3.61,5.67,3.23,8.87a8.84,8.84,0,0,1-6.71,7.12,12.77,12.77,0,0,1-9.9-2,23.56,23.56,0,0,1-6.92-7.65c-6.23-10.27-9.08-27-2.14-37.64C271.83,143.58,274.3,141.15,278.15,140.89Z" transform="translate(-61.68 -12.02)" style="fill:#3e4261"/><path d="M272.6,150.58a9.82,9.82,0,0,1,9.35,5.33c3,6.42-2.76,14-.61,20.65,0.89,2.78,3,5,4.88,7.36s3.48,5.1,3.11,8c-0.4,3.1-3.22,5.65-6.46,6.4a13,13,0,0,1-9.54-1.82,21.79,21.79,0,0,1-6.67-6.88c-6-9.24-8.75-24.3-2.06-33.86C266.51,153,268.88,150.81,272.6,150.58Z" transform="translate(-61.68 -12.02)" style="fill:#30334d"/><path d="M203,162.83h4.9a14.39,14.39,0,0,1,14.39,14.39v34.69a0.44,0.44,0,0,1-.44.44H189a0.44,0.44,0,0,1-.44-0.44V177.22A14.39,14.39,0,0,1,203,162.83Z" style="fill:#00666c"/><path d="M288.38,188.06s12.22,14.2,9.57,23.11c0,0,0,4.62-19-.17l-16-2.64-0.66-4.46a122.87,122.87,0,0,1,27.24,2c-1.15-1.28-2.32-2.77-3.53-4.42a34.1,34.1,0,0,1-4.89-8.63Z" transform="translate(-61.68 -12.02)" style="fill:#ffba76"/><path d="M273.92,176.13s11.76-1.38,21.45,22.17l-10.56,4.18S278,193.23,277,185.2,273.92,176.13,273.92,176.13Z" transform="translate(-61.68 -12.02)" style="fill:#00666c"/><path d="M243.63,187.86s-13.63,13.63-15,22.32c0,0,.19,2.59,19.72,1.2h16.82l1.32-3.35a122.87,122.87,0,0,0-27.16-2.83c1.36-1.06,2.77-2.32,4.25-3.73a34.1,34.1,0,0,0,6.33-7.63Z" transform="translate(-61.68 -12.02)" style="fill:#ffba76"/><path d="M260.79,175.83s-12.17-.61-25.83,20.88l9.67,6s8.34-7.9,10.72-15.64S260.79,175.83,260.79,175.83Z" transform="translate(-61.68 -12.02)" style="fill:#00666c"/><rect x="176.9" y="196.16" width="42.26" height="3.8" style="fill:#97b5ba"/><path d="M378.4,303.64c-2.53,2.45-16.81,6.08-17.71,7.48a1.76,1.76,0,0,0-.15,1.68c0.71,1.49,3.29.76,4.54,0.7,1.53-.07,17.8-0.85,17.81-0.79l0.16,0.9,5.43-.25-0.37-10S384,303.56,378.4,303.64Z" transform="translate(-61.68 -12.02)" style="fill:#30334d"/><path d="M358.53,298.91c-2.22,2.74-16,8.05-16.69,9.55a1.76,1.76,0,0,0,.06,1.68c0.89,1.39,3.36.36,4.59,0.15,1.51-.25,17.57-3,17.59-2.92l0.27,0.88,5.37-.9-1.56-9.85S364,298.17,358.53,298.91Z" transform="translate(-61.68 -12.02)" style="fill:#1b1f30"/><path d="M329.53,178.36l-1.83,27.48c-0.19,2.85-4.64,2.46-6.58,2.78-3,.5-6.93,1.63-9.26,3.75,0.84,0.45,2.5.28,3.49,0.33,1.27,0.07,2.54.12,3.8,0.16,2.6,0.09,5.2.14,7.81,0.25,0,0,7-.44,6.79-4.63s5.1-29.32,5.1-29.32Z" transform="translate(-61.68 -12.02)" style="fill:#eda86a"/><path d="M324.82,184.59l15.51,2.3,2.61-21.26c0.63-4.56.83-12-3.81-12.9l-1.12-.31c-5.21-.89-12.37,6.5-12.54,11.65Z" transform="translate(-61.68 -12.02)" style="fill:#ca9d25"/><path d="M362.75,200.24l-18,42.39a15.68,15.68,0,0,0-.72,10.2l13,47.47,11.28-1.14c-0.68-7.44.32-31.06-3.81-38.61a12.79,12.79,0,0,1,.25-13l5.06-8.13,2.94-39Z" transform="translate(-61.68 -12.02)" style="fill:#30334d"/><path d="M381,192.09l-2.72-7.27s14.26,12.89,12.23,24.78c-1.76,10.27-4.78,33.58-5.58,39.77a7,7,0,0,0,.28,3l3.32,10.44a22.58,22.58,0,0,1,1.05,7.61l-1.12,33.34H376.9l-9.68-52.41a11.14,11.14,0,0,1-.18-1.82l-0.89-49.75Z" transform="translate(-61.68 -12.02)" style="fill:#3e4261"/><path d="M341.18,149.72c8.53,1.9,27.83,11.52,42.77,41.39,2,4-3.52,8.67-6.55,10.26a23.23,23.23,0,0,1-7.91,2.33,33.34,33.34,0,0,1-4.69.25c-0.65,0-4.72.13-5-.41a61.1,61.1,0,0,0-4.45-7.67c-1.81-2.59-4-5.38-6.64-8.85A95.59,95.59,0,0,0,330.6,169a12.14,12.14,0,0,1-2.69-7,13.59,13.59,0,0,1,3.36-9.09A10,10,0,0,1,341.18,149.72Z" transform="translate(-61.68 -12.02)" style="fill:url(#linear-gradient-6)"/><path d="M332,164.33l-15.79,16a9.09,9.09,0,0,1-3.3,2.13l-25.22,9.37a7.52,7.52,0,0,1-5.13,0l-3.09-1.09a7.51,7.51,0,0,0-3.71-.33l-12.56,2.34,0.16,1.39,10.44,0.15,1.62,2.86a5.39,5.39,0,0,0,6,2.51l35.89-9.1a12.22,12.22,0,0,0,4.79-2.43l17.58-14.55Z" transform="translate(-61.68 -12.02)" style="fill:#ffba76"/><path d="M311.4,143.46a1.46,1.46,0,0,0-.17-1.3c-1.08-1.6-3.4-6.35,3.06-11.11,0,0,11.63-7.29,16.78,4.22a9.22,9.22,0,0,1-.16,8.45c-0.54,1,5.91,5.61,6.69,5.88s2.64,4.25-8,9.22c-0.45-.72-0.62-0.77-1.34-1.78-2.3-3.18-5.15-4.71-7.67-3.72-1.17.46-3.27,2-4.54,1.33-0.68-.35-2.1-3.48-2.49-3.81l-0.2-.17a1.68,1.68,0,0,1-.6-1.26v-0.79l-1.61-.69a1.24,1.24,0,0,1-.7-1.55Z" transform="translate(-61.68 -12.02)" style="fill:#ffba76"/><path d="M324.39,142.94l1.32-.2a3.59,3.59,0,0,1-.51-1.91,1.29,1.29,0,0,1,1.36-1.18c0.88,0.17,1,1.29,1.2,2.15a5.48,5.48,0,0,0,6.13,4.07,37.34,37.34,0,0,0-.25-9.5,12.84,12.84,0,0,0-4.79-8.06,14.25,14.25,0,0,0-8.64-2.22,23.91,23.91,0,0,0-9.29,2.14,10.16,10.16,0,0,0-3.6,2.48,4.61,4.61,0,0,0-1.13,4,5.1,5.1,0,0,0,4.26,3.35,15.51,15.51,0,0,0,5.73-.51c1.5-.32,4.31-1.31,5.5-0.08C322.2,138,323.91,143,324.39,142.94Z" transform="translate(-61.68 -12.02)" style="fill:#3e4261"/><path d="M322,171.6l10.41,10.57,13.49-12.79a8.16,8.16,0,0,0,.52-11.43l-0.17-.18a8.66,8.66,0,0,0-12.72.46Z" transform="translate(-61.68 -12.02)" style="fill:url(#linear-gradient-7)"/><path d="M272.83,212H238.16l-9.31-20a0.66,0.66,0,0,1,.6-0.93h31.29a3.68,3.68,0,0,1,3.34,2.13Z" transform="translate(-61.68 -12.02)" style="fill:#c1e9ed"/><polygon points="276.4 204.23 81.24 204.23 82.81 199.91 274.83 199.91 276.4 204.23" style="fill:#ca9d25"/><path d="M256.25,159.12s0.67,15.1,5.33,15.73c5.72,0.77,9.69-2.11,10.65-7.2,0.38-2-.08-8-0.61-11.68-0.34-2.36-3.06-4.62-5.4-5a9.88,9.88,0,0,0-4.79.41A7,7,0,0,0,256.25,159.12Z" transform="translate(-61.68 -12.02)" style="fill:#ffba76"/><path d="M263.13,171.88s-0.17,3.8,0,5.45a5.07,5.07,0,0,0,5.45,2.48c3.74-.77,3.14-3.22,3.14-3.22l-0.55-10.76Z" transform="translate(-61.68 -12.02)" style="fill:#ffba76"/><path d="M278.91,157a12.7,12.7,0,0,0-10.47-10.24,13.56,13.56,0,0,0-10.8,3.37,11.39,11.39,0,0,0-3.85,11.18c3.12,0.89,15.4.86,17.73,0.73,0.1,2.49.93,4.61,1,7.13C277.4,167.27,279.71,162.12,278.91,157Z" transform="translate(-61.68 -12.02)" style="fill:#3e4261"/><ellipse cx="272.71" cy="165.37" rx="2.39" ry="1.53" transform="translate(-10.68 382.61) rotate(-77.19)" style="fill:#ffba76"/><path d="M272.29,163.35l-0.56-.69-3.2,2.62a3.19,3.19,0,0,0-3-1.79,3.32,3.32,0,0,0-2.84,1.44,3.06,3.06,0,0,0-2.41,0l-0.13.08a3.31,3.31,0,0,0-2.89-1.48,2.66,2.66,0,1,0,3.2,2.61,0.43,0.43,0,0,1,.24-0.42,2.23,2.23,0,0,1,1.67.09,2.13,2.13,0,0,0,0,.33,3,3,0,0,0,3.2,2.61,3,3,0,0,0,3.17-2.4Zm-12.73,2.74a2.41,2.41,0,1,1-2.31-1.72,2.29,2.29,0,0,1,2.25,1.34l0.11,0A1.49,1.49,0,0,0,259.56,166.1Zm6,1.72a1.8,1.8,0,1,1,2.31-1.72A2.09,2.09,0,0,1,265.51,167.82Z" transform="translate(-61.68 -12.02)" style="fill:#3e4261"/><path d="M262.86,174.75l0.27,2.58s3,4.2,6.22-3.47,0.39-2,.39-2S266.79,175.44,262.86,174.75Z" transform="translate(-61.68 -12.02)" style="fill:#da9961"/><path d="M277.09,152.34a4.34,4.34,0,0,0,.52-2,4.7,4.7,0,0,0-4.82-4.57,4.93,4.93,0,0,0-3.24,1.21A13,13,0,0,1,277.09,152.34Z" transform="translate(-61.68 -12.02)" style="fill:#ffd334"/><rect x="244.84" y="204.08" width="4.72" height="97.61" style="fill:#70560f"/><polygon points="77.7 271.94 74.89 281.98 68.84 280.21 71.94 270.03 77.7 271.94" style="fill:#ffba76"/><path d="M110.18,238.29L140.49,244a1.3,1.3,0,0,1,.66,2.05c-2.47,3.14-7.55,12.55-10.38,38.69l8.26,2.07,18.88-46.62,1.48-11.21Z" transform="translate(-61.68 -12.02)" style="fill:#30334d"/><path d="M182.6,263.91A40,40,0,0,1,195,275.68a4.29,4.29,0,0,1,.35,5.69,4.19,4.19,0,0,1-6.12.39A45.8,45.8,0,0,1,177.86,271a2.68,2.68,0,0,1-.75-2.63l1.07-4.07Z" transform="translate(-61.68 -12.02)" style="fill:#1b1f30"/><path d="M180.83,260.81L184,265.4a2.7,2.7,0,0,1,.38,2.2h0a2.7,2.7,0,0,1-3.46,1.88l-0.64-.21a2.7,2.7,0,0,1-1.55-1.33L176,262.58Z" transform="translate(-61.68 -12.02)" style="fill:#ffba76"/><path d="M103.33,216.35s-8.06,13.38-1.77,23.21,48.58-6.29,48.58-6.29,20.46,29.7,25.37,31.67c0,0,6.1,0,7.28-3.15,0,0-16.52-39.54-29.5-41.5l-31.67,1Z" transform="translate(-61.68 -12.02)" style="fill:#3e4261"/><polygon points="39.98 301.3 33.29 301.3 41.16 234.03 47.85 234.03 39.98 301.3" style="fill:#008588"/><polygon points="77.75 301.3 84.43 301.3 76.57 234.03 69.88 234.03 77.75 301.3" style="fill:#008588"/><rect x="54.83" y="233.44" width="6.49" height="67.57" style="fill:#006669"/><path d="M142.28,249.79h-41.7a4.41,4.41,0,0,1-4.13-4.62h0a4.41,4.41,0,0,1,4.13-4.62h41.7a4.41,4.41,0,0,1,4.13,4.62h0A4.41,4.41,0,0,1,142.28,249.79Z" transform="translate(-61.68 -12.02)" style="fill:#00c2c7"/><path d="M146.69,300.34l-6.42-7.61a19,19,0,0,0-.66-2,1.59,1.59,0,0,0-1-1.13,1.11,1.11,0,0,0-1.09.73,2.69,2.69,0,0,0-.17,1.22c-3.44-.09-6.5-3.19-6.5-3.19a12,12,0,0,0-3.06,5.39,1.41,1.41,0,0,0,.58,1.59l18.28,11.36,0.73-1.13A5,5,0,0,0,146.69,300.34Z" transform="translate(-61.68 -12.02)" style="fill:#1b1f30"/><polygon points="124.76 173.54 129.77 174.43 120.33 199.81 115.02 199.66 124.76 173.54" style="fill:#c1e9ed"/><path d="M176,211.53c-3.41-8.26-11.15-6.69-15.49-5a7.43,7.43,0,0,1-3,.45c-1.57-.07-3.14-0.11-4.71-0.14-2.33,0-4.65,0-7,.05s-4.63.15-6.94,0.27l-3.21.19q-0.87-1.58-1.69-3.17c-1-2-1.9-3.94-2.76-5.95s-1.65-4-2.36-6.11-1.39-4.14-2-6.24l0-.06a5.68,5.68,0,0,0-7.12-3.71,5.78,5.78,0,0,0-3.86,6.53,56.47,56.47,0,0,0,1.81,7.24A64.3,64.3,0,0,0,120.3,203a65.14,65.14,0,0,0,3.54,6.76,67.71,67.71,0,0,0,4.25,6.31l0.27,0.37a5.08,5.08,0,0,0,4.92,2c2.27-.39,4.54-0.88,6.8-1.32s4.52-1,6.78-1.5,4.51-1.1,6.75-1.72c1.61-.45,3.23-0.93,4.83-1.43Z" transform="translate(-61.68 -12.02)" style="fill:#da9961"/><path d="M128,183.21l3.74,8.84a10.31,10.31,0,0,1-2.32,11.42L124.77,208,122,221.46a32.12,32.12,0,0,1-21.44-3.73s5.61-11.8,5.31-21.54,3.84-21.24,15-18Z" transform="translate(-61.68 -12.02)" style="fill:url(#linear-gradient-8)"/><path d="M120.2,178.34s2.51,5.9,6.34,6.79l0.38-7.72a3.33,3.33,0,0,1,4.27-3l1,0.3a4,4,0,0,0,4.78-2.17l1-2.2a3.25,3.25,0,0,1,2.67-1.88h0a1.33,1.33,0,0,0,1.18-1.61l-0.56-2.5,2.19-4.9a6.11,6.11,0,0,0,.13-4.67c-1.3-3.42-4.52-8.92-11.76-8.72-10.37.29-12.83,4.72-15,17.56Z" transform="translate(-61.68 -12.02)" style="fill:#ffba76"/><path d="M135.87,143.18a15.91,15.91,0,0,0-14.06,2.29c-5.57,4.1-8.38,11.79-14.88,14.14-4.57,1.65-11.06-1.06-13.83,4.39a16.19,16.19,0,0,0-1.3,5.69,14.73,14.73,0,0,1-1.4,5.65c-1.26,2.28-3.59,3.75-4.86,6a16.12,16.12,0,0,0-1.41,8.88c1,9.37,10.85,17.28,19.91,11.83,4.05-2.44,1-8.52,2.14-12.37a25.12,25.12,0,0,1,2.77-6.94c1.38-2.17,3.45-4.09,6-4.49s5.37,0.71,7.56-.62c2.43-1.46,2.52-4.91,2.15-7.72s-0.74-6.1,1.28-8.08a6.89,6.89,0,0,1,4.89-1.58,46.85,46.85,0,0,0,5.27.1c2.62-.29,6.17-1.5,7.71-3.64a11.6,11.6,0,0,0,1.25-2.07c1.07-2.73-.63-5.78-2.73-7.82A17.15,17.15,0,0,0,135.87,143.18Z" transform="translate(-61.68 -12.02)" style="fill:url(#Degradado_sin_nombre_48-2)"/><rect x="95.35" y="195.67" width="24.19" height="4.13" style="fill:#97b5ba"/><path d="M170.51,212.12c-3.41-8.26-11.15-6.69-15.49-5a7.43,7.43,0,0,1-3,.45c-1.57-.07-3.14-0.11-4.71-0.14-2.33,0-4.65,0-7,.05s-4.63.15-6.94,0.27l-3.21.19q-0.87-1.58-1.69-3.17c-1-2-1.9-3.94-2.76-5.95s-1.64-4-2.36-6.11-1.39-4.14-2-6.24l0-.06a5.68,5.68,0,0,0-7.12-3.71,5.78,5.78,0,0,0-3.86,6.53,56.47,56.47,0,0,0,1.81,7.24,64.3,64.3,0,0,0,2.75,7.12,65.14,65.14,0,0,0,3.54,6.76,67.73,67.73,0,0,0,4.25,6.31l0.27,0.37a5.08,5.08,0,0,0,4.92,2c2.27-.39,4.54-0.88,6.8-1.32s4.52-1,6.78-1.5,4.51-1.1,6.75-1.72c1.61-.45,3.23-0.93,4.83-1.43Z" transform="translate(-61.68 -12.02)" style="fill:#ffba76"/><polygon points="145.76 286.13 141.8 292.51 146.97 296.03 151.15 289.65 145.76 286.13" style="fill:#ffba76"/><path d="M204.66,304.49a20.45,20.45,0,0,0-15.26-3.77,1.1,1.1,0,0,0-.45,2l17.58,11s4-5,2.52-7A3.62,3.62,0,0,1,204.66,304.49Z" transform="translate(-61.68 -12.02)" style="fill:#1b1f30"/><path d="M241,235.27L204.63,300.1A60,60,0,0,0,212,306l22.11-33.23c4.08-2.7,8.41-5.4,8.41-5.4,8.51-5.57,26-23.77,26-23.77Z" transform="translate(-61.68 -12.02)" style="fill:#30334d"/><polygon points="180.11 287.7 182 297.1 188.17 297.1 186.27 287.04 180.11 287.7" style="fill:#ffba76"/><path d="M282.83,223.61l-50.94.17a11.23,11.23,0,0,0-10.84,14l18.5,63.52h9.72l-3.52-31.1a5.92,5.92,0,0,1,.1-1.87c3-14.46-6.15-22.95-6.15-22.95,5.23,2.24,13.69,3.25,21.72,3.68a20.61,20.61,0,0,0,21.63-20Z" transform="translate(-61.68 -12.02)" style="fill:#3e4261"/><path d="M244.58,307.78s-8.24-.89-15.78,6.18a1,1,0,0,0,.71,1.65l22.19-.93s0.46-6.67-2-7.47A3.78,3.78,0,0,1,244.58,307.78Z" transform="translate(-61.68 -12.02)" style="fill:#1b1f30"/><rect x="92.99" y="204.08" width="4.72" height="97.61" style="fill:#70560f"/></g></g></svg>