<svg xmlns="http://www.w3.org/2000/svg" xmlns:xlink="http://www.w3.org/1999/xlink" width="500" zoomAndPan="magnify" viewBox="0 0 375 374.999991" height="500" preserveAspectRatio="xMidYMid meet" version="1.0"><defs><g/><clipPath id="id1"><path d="M 140 146 L 264.710938 146 L 264.710938 180 L 140 180 Z M 140 146 " clip-rule="nonzero"/></clipPath><clipPath id="id2"><path d="M 110.210938 94 L 235 94 L 235 128 L 110.210938 128 Z M 110.210938 94 " clip-rule="nonzero"/></clipPath></defs><rect x="-37.5" width="450" fill="#ffffff" y="-37.499999" height="449.999989" fill-opacity="1"/><rect x="-37.5" width="450" fill="#ffffff" y="-37.499999" height="449.999989" fill-opacity="1"/><rect x="-37.5" width="450" fill="#ffffff" y="-37.499999" height="449.999989" fill-opacity="1"/><rect x="-37.5" width="450" fill="#ffffff" y="-37.499999" height="449.999989" fill-opacity="1"/><path fill="#000000" d="M 211.351562 154.863281 C 208.3125 154.863281 205.851562 152.402344 205.851562 149.367188 C 205.851562 146.332031 208.3125 143.871094 211.351562 143.871094 C 214.386719 143.871094 216.847656 146.332031 216.847656 149.367188 C 216.847656 152.402344 214.386719 154.863281 211.351562 154.863281 Z M 187.460938 103.238281 C 175.8125 103.238281 165.542969 109.128906 159.464844 118.085938 C 160.441406 117.722656 161.492188 117.523438 162.59375 117.523438 C 167.527344 117.523438 171.523438 121.519531 171.523438 126.449219 C 171.523438 131.378906 167.527344 135.371094 162.59375 135.371094 C 158.921875 135.371094 155.769531 133.15625 154.398438 129.992188 C 153.917969 132.257812 153.664062 134.605469 153.664062 137.015625 C 153.664062 155.667969 168.792969 170.789062 187.460938 170.789062 C 206.125 170.789062 221.253906 155.667969 221.253906 137.015625 C 221.253906 118.359375 206.125 103.238281 187.460938 103.238281 " fill-opacity="1" fill-rule="nonzero"/><g clip-path="url(#id1)"><path fill="#80cc28" d="M 146.644531 159.800781 C 161.898438 170.261719 176.695312 170.816406 190.726562 168.539062 C 185.433594 167.054688 180.128906 164.246094 174.90625 159.273438 C 171.058594 155.617188 168.21875 151.242188 166.175781 146.425781 C 167.386719 148.058594 168.730469 149.605469 170.238281 151.039062 C 191.261719 171.050781 212.628906 158.730469 230.804688 160.253906 C 242.816406 161.261719 254.789062 163.398438 264.710938 179.761719 C 235.972656 151.4375 197.019531 199.160156 154.527344 170.027344 C 148.40625 165.832031 143.691406 160.476562 140.089844 154.359375 C 142.074219 156.332031 144.25 158.160156 146.644531 159.800781 " fill-opacity="1" fill-rule="nonzero"/></g><g clip-path="url(#id2)"><path fill="#3871c1" d="M 228.273438 114.226562 C 213.019531 103.769531 198.226562 103.214844 184.195312 105.488281 C 189.484375 106.972656 194.789062 109.785156 200.011719 114.753906 C 203.859375 118.414062 206.699219 122.785156 208.742188 127.605469 C 207.53125 125.96875 206.1875 124.421875 204.679688 122.988281 C 183.65625 102.976562 162.289062 115.300781 144.113281 113.773438 C 132.101562 112.769531 120.128906 110.632812 110.207031 94.269531 C 138.945312 122.59375 177.902344 74.867188 220.390625 104 C 226.511719 108.195312 231.226562 113.554688 234.828125 119.671875 C 232.84375 117.699219 230.667969 115.871094 228.273438 114.226562 " fill-opacity="1" fill-rule="nonzero"/></g><g fill="#000000" fill-opacity="1"><g transform="translate(94.3415, 229.023619)"><g><path d="M 1.011719 0.0351562 L 21.445312 0.0351562 L 21.445312 -3.238281 L 4.28125 -3.238281 L 4.28125 -13.082031 L 19.289062 -13.082031 L 19.289062 -16.355469 L 4.28125 -16.355469 L 4.28125 -26.167969 L 21.445312 -26.167969 L 21.445312 -29.472656 L 1.011719 -29.472656 Z M 1.011719 0.0351562 "/></g></g></g><g fill="#000000" fill-opacity="1"><g transform="translate(116.761859, 229.023619)"><g><path d="M 1.011719 -10.519531 L 16.253906 -10.519531 L 16.253906 -13.792969 L 1.011719 -13.792969 Z M 1.011719 -10.519531 "/></g></g></g><g fill="#000000" fill-opacity="1"><g transform="translate(134.023851, 229.023619)"><g><path d="M 4.449219 0.0351562 L 13.589844 0.0351562 C 21.714844 0.0351562 28.292969 -6.542969 28.292969 -14.667969 C 28.292969 -22.828125 21.75 -29.472656 13.65625 -29.472656 L 1.011719 -29.472656 L 1.011719 -26.199219 L 4.519531 -26.199219 Z M 7.789062 -3.167969 L 7.789062 -26.199219 L 13.65625 -26.199219 C 19.929688 -26.199219 25.019531 -21.007812 25.019531 -14.667969 C 25.019531 -8.328125 19.929688 -3.167969 13.65625 -3.167969 Z M 7.789062 -3.167969 "/></g></g></g><g fill="#000000" fill-opacity="1"><g transform="translate(163.322041, 229.023619)"><g><path d="M 4.652344 0.0351562 L 7.925781 0.0351562 L 7.925781 -12.105469 L 12.679688 -12.105469 L 21.3125 0.0351562 L 25.257812 0.0351562 L 16.65625 -12.171875 L 17.636719 -12.441406 C 21.378906 -13.453125 24.007812 -16.894531 24.007812 -20.773438 C 24.007812 -25.558594 20.128906 -29.472656 15.34375 -29.472656 L 1.011719 -29.472656 L 1.011719 -26.199219 L 4.652344 -26.199219 Z M 7.925781 -15.410156 L 7.925781 -26.199219 L 15.34375 -26.199219 C 18.308594 -26.199219 20.738281 -23.773438 20.738281 -20.773438 C 20.738281 -17.835938 18.308594 -15.410156 15.34375 -15.410156 Z M 7.925781 -15.410156 "/></g></g></g><g fill="#000000" fill-opacity="1"><g transform="translate(189.012743, 229.023619)"><g><path d="M 1.011719 0.0351562 L 9.675781 0.0351562 L 9.675781 -3.238281 L 6.980469 -3.238281 L 6.980469 -26.199219 L 9.675781 -26.199219 L 9.675781 -29.472656 L 1.011719 -29.472656 L 1.011719 -26.199219 L 3.710938 -26.199219 L 3.710938 -3.238281 L 1.011719 -3.238281 Z M 1.011719 0.0351562 "/></g></g></g><g fill="#000000" fill-opacity="1"><g transform="translate(199.700345, 229.023619)"><g><path d="M 11.398438 0.0351562 C 17.097656 0.0351562 21.78125 -3.710938 21.78125 -8.363281 C 21.78125 -11.902344 19.289062 -15.074219 15.714844 -16.015625 C 14.703125 -16.285156 13.285156 -16.488281 11.769531 -16.726562 C 10.117188 -16.960938 8.734375 -17.195312 7.925781 -17.433594 C 5.800781 -18.007812 4.351562 -19.792969 4.351562 -21.816406 C 4.351562 -24.617188 7.484375 -26.910156 11.398438 -26.910156 C 14.769531 -26.910156 17.636719 -25.1875 18.308594 -22.726562 L 21.414062 -24.109375 C 20.128906 -27.75 15.984375 -30.246094 11.398438 -30.246094 C 5.664062 -30.246094 1.011719 -26.46875 1.011719 -21.816406 C 1.011719 -18.34375 3.472656 -15.207031 7.015625 -14.195312 C 8.125 -13.894531 9.746094 -13.621094 11.261719 -13.421875 C 12.679688 -13.21875 14.027344 -12.980469 14.871094 -12.78125 C 16.960938 -12.242188 18.445312 -10.386719 18.445312 -8.363281 C 18.445312 -5.597656 15.273438 -3.304688 11.398438 -3.304688 C 7.214844 -3.304688 3.878906 -5.933594 4.382812 -8.96875 L 1.046875 -8.96875 C 0.605469 -4.046875 5.429688 0.0351562 11.398438 0.0351562 Z M 11.398438 0.0351562 "/></g></g></g><g fill="#000000" fill-opacity="1"><g transform="translate(222.491573, 229.023619)"><g><path d="M 1.011719 0.0351562 L 4.28125 0.0351562 L 4.28125 -13.082031 L 20.636719 -13.082031 L 20.636719 0.0351562 L 23.90625 0.0351562 L 23.90625 -29.472656 L 20.636719 -29.472656 L 20.636719 -16.355469 L 4.28125 -16.355469 L 4.28125 -29.472656 L 1.011719 -29.472656 Z M 1.011719 0.0351562 "/></g></g></g><g fill="#000000" fill-opacity="1"><g transform="translate(247.406836, 229.023619)"><g><path d="M 9.675781 0.0351562 L 12.949219 0.0351562 L 12.949219 -26.199219 L 21.546875 -26.199219 L 21.546875 -29.472656 L 1.011719 -29.472656 L 1.011719 -26.199219 L 9.675781 -26.199219 Z M 9.675781 0.0351562 "/></g></g></g><g fill="#000000" fill-opacity="1"><g transform="translate(269.962052, 229.023619)"><g><path d="M 1.011719 0.0351562 L 9.675781 0.0351562 L 9.675781 -3.238281 L 6.980469 -3.238281 L 6.980469 -26.199219 L 9.675781 -26.199219 L 9.675781 -29.472656 L 1.011719 -29.472656 L 1.011719 -26.199219 L 3.710938 -26.199219 L 3.710938 -3.238281 L 1.011719 -3.238281 Z M 1.011719 0.0351562 "/></g></g></g><g fill="#000000" fill-opacity="1"><g transform="translate(69.466051, 252.68821)"><g><path d="M 1.984375 -2.320312 C 2.414062 -2.320312 2.75 -2.671875 2.75 -3.070312 C 2.75 -3.503906 2.414062 -3.871094 1.984375 -3.871094 C 1.550781 -3.871094 1.199219 -3.503906 1.199219 -3.070312 C 1.199219 -2.671875 1.550781 -2.320312 1.984375 -2.320312 Z M 1.984375 -2.320312 "/></g></g></g><g fill="#000000" fill-opacity="1"><g transform="translate(74.617093, 252.68821)"><g><path d="M 3.375 0 L 5.710938 0 L 5.710938 -0.6875 L 4.976562 -0.6875 L 4.976562 -8.015625 L 7.582031 -8.015625 L 7.582031 -7.183594 L 8.238281 -7.183594 L 8.238281 -8.796875 L 0.800781 -8.796875 L 0.800781 -7.183594 L 1.457031 -7.183594 L 1.457031 -8.015625 L 4.128906 -8.015625 L 4.128906 -0.6875 L 3.375 -0.6875 Z M 3.375 0 "/></g></g></g><g fill="#000000" fill-opacity="1"><g transform="translate(84.854919, 252.68821)"><g><path d="M 1.039062 0 L 3.359375 0 L 3.359375 -0.6875 L 2.589844 -0.6875 L 2.589844 -3.808594 L 8 -3.808594 L 8 -0.6875 L 7.246094 -0.6875 L 7.246094 0 L 9.550781 0 L 9.550781 -0.6875 L 8.847656 -0.6875 L 8.847656 -8.09375 L 9.550781 -8.09375 L 9.550781 -8.796875 L 7.246094 -8.796875 L 7.246094 -8.09375 L 8 -8.09375 L 8 -4.605469 L 2.589844 -4.605469 L 2.589844 -8.09375 L 3.359375 -8.09375 L 3.359375 -8.796875 L 1.039062 -8.796875 L 1.039062 -8.09375 L 1.742188 -8.09375 L 1.742188 -0.6875 L 1.039062 -0.6875 Z M 1.039062 0 "/></g></g></g><g fill="#000000" fill-opacity="1"><g transform="translate(96.644368, 252.68821)"><g><path d="M 1.039062 0 L 3.296875 0 L 3.296875 -0.6875 L 2.589844 -0.6875 L 2.589844 -8.09375 L 3.296875 -8.09375 L 3.296875 -8.796875 L 1.039062 -8.796875 L 1.039062 -8.09375 L 1.742188 -8.09375 L 1.742188 -0.6875 L 1.039062 -0.6875 Z M 1.039062 0 "/></g></g></g><g fill="#000000" fill-opacity="1"><g transform="translate(102.179314, 252.68821)"><g><path d="M 0.960938 0 L 3.441406 0 L 3.441406 -0.6875 L 2.574219 -0.6875 L 2.574219 -8.109375 L 7.648438 0 L 9.117188 0 L 9.117188 -8.09375 L 9.824219 -8.09375 L 9.824219 -8.796875 L 7.375 -8.796875 L 7.375 -8.09375 L 8.269531 -8.09375 L 8.269531 -0.574219 L 3.167969 -8.796875 L 0.960938 -8.796875 L 0.960938 -8.09375 L 1.726562 -8.09375 L 1.726562 -0.6875 L 0.960938 -0.6875 Z M 0.960938 0 "/></g></g></g><g fill="#000000" fill-opacity="1"><g transform="translate(114.160717, 252.68821)"><g><path d="M 1.039062 0 L 3.390625 0 L 3.390625 -0.6875 L 2.589844 -0.6875 L 2.589844 -3.933594 L 5.632812 -3.933594 L 8.09375 0 L 9.488281 0 L 9.488281 -0.6875 L 8.671875 -0.6875 L 6.304688 -4.496094 L 8.925781 -8.09375 L 9.488281 -8.09375 L 9.488281 -8.796875 L 7.054688 -8.796875 L 7.054688 -8.09375 L 7.871094 -8.09375 L 5.4375 -4.734375 L 2.589844 -4.734375 L 2.589844 -8.09375 L 3.296875 -8.09375 L 3.296875 -8.796875 L 1.039062 -8.796875 L 1.039062 -8.09375 L 1.742188 -8.09375 L 1.742188 -0.6875 L 1.039062 -0.6875 Z M 1.039062 0 "/></g></g></g><g fill="#000000" fill-opacity="1"><g transform="translate(125.726215, 252.68821)"><g/></g></g><g fill="#000000" fill-opacity="1"><g transform="translate(130.253406, 252.68821)"><g><path d="M 1.984375 -2.320312 C 2.414062 -2.320312 2.75 -2.671875 2.75 -3.070312 C 2.75 -3.503906 2.414062 -3.871094 1.984375 -3.871094 C 1.550781 -3.871094 1.199219 -3.503906 1.199219 -3.070312 C 1.199219 -2.671875 1.550781 -2.320312 1.984375 -2.320312 Z M 1.984375 -2.320312 "/></g></g></g><g fill="#000000" fill-opacity="1"><g transform="translate(135.404449, 252.68821)"><g><path d="M 1.039062 0 L 5.472656 0 C 6.671875 0 8.636719 -0.527344 8.636719 -2.960938 L 8.636719 -5.773438 C 8.636719 -8.222656 6.671875 -8.796875 5.472656 -8.796875 L 1.039062 -8.796875 L 1.039062 -8.09375 L 1.839844 -8.09375 L 1.839844 -0.6875 L 1.039062 -0.6875 Z M 2.6875 -0.769531 L 2.6875 -8.015625 L 5.085938 -8.015625 C 5.519531 -8.015625 7.789062 -8 7.789062 -5.773438 L 7.789062 -3.054688 C 7.789062 -0.75 5.519531 -0.769531 5.085938 -0.769531 Z M 2.6875 -0.769531 "/></g></g></g><g fill="#000000" fill-opacity="1"><g transform="translate(146.282115, 252.68821)"><g><path d="M 1.039062 0 L 7.917969 0 L 7.917969 -1.550781 L 7.261719 -1.550781 L 7.261719 -0.769531 L 2.65625 -0.769531 L 2.65625 -3.824219 L 6.910156 -3.824219 L 6.910156 -4.605469 L 2.65625 -4.605469 L 2.65625 -8.015625 L 7.261719 -8.015625 L 7.261719 -7.472656 L 7.917969 -7.472656 L 7.917969 -8.796875 L 1.039062 -8.796875 L 1.039062 -8.09375 L 1.808594 -8.09375 L 1.808594 -0.6875 L 1.039062 -0.6875 Z M 1.039062 0 "/></g></g></g><g fill="#000000" fill-opacity="1"><g transform="translate(156.439959, 252.68821)"><g><path d="M 1.039062 0 L 7.839844 0 L 7.839844 -1.441406 L 7.183594 -1.441406 L 7.183594 -0.769531 L 2.589844 -0.769531 L 2.589844 -8.09375 L 3.296875 -8.09375 L 3.296875 -8.796875 L 1.039062 -8.796875 L 1.039062 -8.09375 L 1.742188 -8.09375 L 1.742188 -0.6875 L 1.039062 -0.6875 Z M 1.039062 0 "/></g></g></g><g fill="#000000" fill-opacity="1"><g transform="translate(166.117912, 252.68821)"><g><path d="M 1.039062 0 L 3.296875 0 L 3.296875 -0.6875 L 2.589844 -0.6875 L 2.589844 -8.09375 L 3.296875 -8.09375 L 3.296875 -8.796875 L 1.039062 -8.796875 L 1.039062 -8.09375 L 1.742188 -8.09375 L 1.742188 -0.6875 L 1.039062 -0.6875 Z M 1.039062 0 "/></g></g></g><g fill="#000000" fill-opacity="1"><g transform="translate(171.652858, 252.68821)"><g><path d="M 1.039062 0 L 5.613281 0 C 6.78125 0 8.109375 -0.304688 8.109375 -2.046875 C 8.109375 -2.382812 8.109375 -3.679688 7.136719 -4.191406 C 8.125 -4.960938 8.109375 -5.917969 8.109375 -6.589844 C 8.109375 -8.558594 6.703125 -8.796875 5.535156 -8.796875 L 1.039062 -8.796875 L 1.039062 -8.09375 L 1.792969 -8.09375 L 1.792969 -0.6875 L 1.039062 -0.6875 Z M 2.640625 -4.589844 L 2.640625 -8.03125 L 5.007812 -8.03125 C 6.144531 -8.03125 7.261719 -8.015625 7.261719 -6.414062 C 7.261719 -5.695312 7.167969 -4.589844 5.085938 -4.589844 Z M 2.640625 -0.769531 L 2.640625 -3.808594 L 5.039062 -3.808594 C 6.398438 -3.808594 7.261719 -3.328125 7.261719 -2.09375 C 7.261719 -1.390625 7.167969 -0.769531 5.085938 -0.769531 Z M 2.640625 -0.769531 "/></g></g></g><g fill="#000000" fill-opacity="1"><g transform="translate(182.002653, 252.68821)"><g><path d="M 1.039062 0 L 7.917969 0 L 7.917969 -1.550781 L 7.261719 -1.550781 L 7.261719 -0.769531 L 2.65625 -0.769531 L 2.65625 -3.824219 L 6.910156 -3.824219 L 6.910156 -4.605469 L 2.65625 -4.605469 L 2.65625 -8.015625 L 7.261719 -8.015625 L 7.261719 -7.472656 L 7.917969 -7.472656 L 7.917969 -8.796875 L 1.039062 -8.796875 L 1.039062 -8.09375 L 1.808594 -8.09375 L 1.808594 -0.6875 L 1.039062 -0.6875 Z M 1.039062 0 "/></g></g></g><g fill="#000000" fill-opacity="1"><g transform="translate(192.160497, 252.68821)"><g><path d="M 1.039062 0 L 3.503906 0 L 3.503906 -0.6875 L 2.65625 -0.6875 L 2.65625 -3.40625 L 4.925781 -3.40625 L 7.054688 0 L 8.480469 0 L 8.480469 -0.6875 L 7.628906 -0.6875 L 5.917969 -3.40625 C 8.269531 -3.664062 8.269531 -5.230469 8.269531 -6.320312 C 8.269531 -8.351562 6.878906 -8.796875 5.695312 -8.796875 L 1.039062 -8.796875 L 1.039062 -8.09375 L 1.808594 -8.09375 L 1.808594 -0.6875 L 1.039062 -0.6875 Z M 2.65625 -4.191406 L 2.65625 -8.015625 L 5.3125 -8.015625 C 5.742188 -8.015625 7.421875 -8.015625 7.421875 -6.269531 C 7.421875 -5.199219 7.34375 -4.191406 5.230469 -4.191406 Z M 2.65625 -4.191406 "/></g></g></g><g fill="#000000" fill-opacity="1"><g transform="translate(202.638261, 252.68821)"><g><path d="M 0.640625 0 L 2.992188 0 L 2.992188 -0.6875 L 2.207031 -0.6875 L 3.136719 -3.070312 L 7.101562 -3.070312 L 8.03125 -0.6875 L 7.246094 -0.6875 L 7.246094 0 L 9.597656 0 L 9.597656 -0.6875 L 8.941406 -0.6875 L 5.773438 -8.796875 L 3.199219 -8.796875 L 3.199219 -8.09375 L 4.191406 -8.09375 L 1.296875 -0.6875 L 0.640625 -0.6875 Z M 3.441406 -3.855469 L 5.121094 -8.109375 L 6.800781 -3.855469 Z M 3.441406 -3.855469 "/></g></g></g><g fill="#000000" fill-opacity="1"><g transform="translate(214.075794, 252.68821)"><g><path d="M 3.375 0 L 5.710938 0 L 5.710938 -0.6875 L 4.976562 -0.6875 L 4.976562 -8.015625 L 7.582031 -8.015625 L 7.582031 -7.183594 L 8.238281 -7.183594 L 8.238281 -8.796875 L 0.800781 -8.796875 L 0.800781 -7.183594 L 1.457031 -7.183594 L 1.457031 -8.015625 L 4.128906 -8.015625 L 4.128906 -0.6875 L 3.375 -0.6875 Z M 3.375 0 "/></g></g></g><g fill="#000000" fill-opacity="1"><g transform="translate(224.313621, 252.68821)"><g><path d="M 1.039062 0 L 7.917969 0 L 7.917969 -1.550781 L 7.261719 -1.550781 L 7.261719 -0.769531 L 2.65625 -0.769531 L 2.65625 -3.824219 L 6.910156 -3.824219 L 6.910156 -4.605469 L 2.65625 -4.605469 L 2.65625 -8.015625 L 7.261719 -8.015625 L 7.261719 -7.472656 L 7.917969 -7.472656 L 7.917969 -8.796875 L 1.039062 -8.796875 L 1.039062 -8.09375 L 1.808594 -8.09375 L 1.808594 -0.6875 L 1.039062 -0.6875 Z M 1.039062 0 "/></g></g></g><g fill="#000000" fill-opacity="1"><g transform="translate(234.471465, 252.68821)"><g/></g></g><g fill="#000000" fill-opacity="1"><g transform="translate(238.998656, 252.68821)"><g><path d="M 1.984375 -2.320312 C 2.414062 -2.320312 2.75 -2.671875 2.75 -3.070312 C 2.75 -3.503906 2.414062 -3.871094 1.984375 -3.871094 C 1.550781 -3.871094 1.199219 -3.503906 1.199219 -3.070312 C 1.199219 -2.671875 1.550781 -2.320312 1.984375 -2.320312 Z M 1.984375 -2.320312 "/></g></g></g><g fill="#000000" fill-opacity="1"><g transform="translate(244.149698, 252.68821)"><g><path d="M 4.734375 0.078125 C 5.792969 0.078125 7.34375 0 7.871094 -0.320312 L 7.871094 -1.550781 L 7.214844 -1.550781 L 7.214844 -0.992188 C 6.527344 -0.6875 5.597656 -0.6875 5.199219 -0.6875 L 4.703125 -0.6875 C 3.472656 -0.6875 1.886719 -0.71875 1.886719 -2.496094 L 1.886719 -6.175781 C 1.886719 -8.078125 4.238281 -8.09375 4.703125 -8.09375 L 4.960938 -8.09375 C 5.261719 -8.09375 6.367188 -8.03125 7.199219 -7.742188 L 7.199219 -7.3125 L 7.855469 -7.3125 L 7.855469 -8.527344 C 7.261719 -8.703125 5.679688 -8.878906 4.734375 -8.878906 C 3.457031 -8.878906 1.039062 -8.511719 1.039062 -6.445312 L 1.039062 -2.128906 C 1.039062 -0.046875 3.457031 0.078125 4.734375 0.078125 Z M 4.734375 0.078125 "/></g></g></g><g fill="#000000" fill-opacity="1"><g transform="translate(254.259546, 252.68821)"><g><path d="M 1.039062 0 L 3.503906 0 L 3.503906 -0.6875 L 2.65625 -0.6875 L 2.65625 -3.40625 L 4.925781 -3.40625 L 7.054688 0 L 8.480469 0 L 8.480469 -0.6875 L 7.628906 -0.6875 L 5.917969 -3.40625 C 8.269531 -3.664062 8.269531 -5.230469 8.269531 -6.320312 C 8.269531 -8.351562 6.878906 -8.796875 5.695312 -8.796875 L 1.039062 -8.796875 L 1.039062 -8.09375 L 1.808594 -8.09375 L 1.808594 -0.6875 L 1.039062 -0.6875 Z M 2.65625 -4.191406 L 2.65625 -8.015625 L 5.3125 -8.015625 C 5.742188 -8.015625 7.421875 -8.015625 7.421875 -6.269531 C 7.421875 -5.199219 7.34375 -4.191406 5.230469 -4.191406 Z M 2.65625 -4.191406 "/></g></g></g><g fill="#000000" fill-opacity="1"><g transform="translate(264.737309, 252.68821)"><g><path d="M 1.039062 0 L 7.917969 0 L 7.917969 -1.550781 L 7.261719 -1.550781 L 7.261719 -0.769531 L 2.65625 -0.769531 L 2.65625 -3.824219 L 6.910156 -3.824219 L 6.910156 -4.605469 L 2.65625 -4.605469 L 2.65625 -8.015625 L 7.261719 -8.015625 L 7.261719 -7.472656 L 7.917969 -7.472656 L 7.917969 -8.796875 L 1.039062 -8.796875 L 1.039062 -8.09375 L 1.808594 -8.09375 L 1.808594 -0.6875 L 1.039062 -0.6875 Z M 1.039062 0 "/></g></g></g><g fill="#000000" fill-opacity="1"><g transform="translate(274.895153, 252.68821)"><g><path d="M 0.640625 0 L 2.992188 0 L 2.992188 -0.6875 L 2.207031 -0.6875 L 3.136719 -3.070312 L 7.101562 -3.070312 L 8.03125 -0.6875 L 7.246094 -0.6875 L 7.246094 0 L 9.597656 0 L 9.597656 -0.6875 L 8.941406 -0.6875 L 5.773438 -8.796875 L 3.199219 -8.796875 L 3.199219 -8.09375 L 4.191406 -8.09375 L 1.296875 -0.6875 L 0.640625 -0.6875 Z M 3.441406 -3.855469 L 5.121094 -8.109375 L 6.800781 -3.855469 Z M 3.441406 -3.855469 "/></g></g></g><g fill="#000000" fill-opacity="1"><g transform="translate(286.332675, 252.68821)"><g><path d="M 3.375 0 L 5.710938 0 L 5.710938 -0.6875 L 4.976562 -0.6875 L 4.976562 -8.015625 L 7.582031 -8.015625 L 7.582031 -7.183594 L 8.238281 -7.183594 L 8.238281 -8.796875 L 0.800781 -8.796875 L 0.800781 -7.183594 L 1.457031 -7.183594 L 1.457031 -8.015625 L 4.128906 -8.015625 L 4.128906 -0.6875 L 3.375 -0.6875 Z M 3.375 0 "/></g></g></g><g fill="#000000" fill-opacity="1"><g transform="translate(296.57049, 252.68821)"><g><path d="M 1.039062 0 L 7.917969 0 L 7.917969 -1.550781 L 7.261719 -1.550781 L 7.261719 -0.769531 L 2.65625 -0.769531 L 2.65625 -3.824219 L 6.910156 -3.824219 L 6.910156 -4.605469 L 2.65625 -4.605469 L 2.65625 -8.015625 L 7.261719 -8.015625 L 7.261719 -7.472656 L 7.917969 -7.472656 L 7.917969 -8.796875 L 1.039062 -8.796875 L 1.039062 -8.09375 L 1.808594 -8.09375 L 1.808594 -0.6875 L 1.039062 -0.6875 Z M 1.039062 0 "/></g></g></g></svg>