<svg id="Layer_1" data-name="Layer 1" xmlns="http://www.w3.org/2000/svg" xmlns:xlink="http://www.w3.org/1999/xlink" viewBox="0 0 645.64 498.08"><defs><linearGradient id="Íîâûé_îáðàçåö_ãðàäèåíòà_9" x1="187.64" y1="526.94" x2="833.28" y2="526.94" gradientUnits="userSpaceOnUse"><stop offset="0" stop-color="#53cd9f"/><stop offset="1" stop-color="#0d7a5c"/></linearGradient><linearGradient id="Íîâûé_îáðàçåö_ãðàäèåíòà_9-2" x1="415.76" y1="23.18" x2="411.48" y2="109.35" xlink:href="#Íîâûé_îáðàçåö_ãðàäèåíòà_9"/><linearGradient id="linear-gradient" x1="415.76" y1="23.18" x2="411.48" y2="109.35" gradientUnits="userSpaceOnUse"><stop offset="0" stop-color="#fb9a2b"/><stop offset="1" stop-color="#e65925"/></linearGradient><linearGradient id="linear-gradient-2" x1="386" y1="98.56" x2="393.09" y2="98.56" xlink:href="#linear-gradient"/><linearGradient id="linear-gradient-3" x1="419.83" y1="111.89" x2="424.41" y2="111.89" xlink:href="#linear-gradient"/><linearGradient id="linear-gradient-4" x1="431.91" y1="79.32" x2="438.99" y2="79.32" xlink:href="#linear-gradient"/><linearGradient id="linear-gradient-5" x1="400.59" y1="65.99" x2="405.17" y2="65.99" xlink:href="#linear-gradient"/><linearGradient id="linear-gradient-6" x1="411.11" y1="48.4" x2="419.38" y2="48.4" gradientTransform="translate(434.41 -369.22) rotate(85.98)" xlink:href="#linear-gradient"/><linearGradient id="linear-gradient-7" x1="377.11" y1="62.46" x2="386.97" y2="62.46" gradientTransform="translate(181.4 -268.6) rotate(49.5)" xlink:href="#linear-gradient"/><linearGradient id="linear-gradient-8" x1="390.77" y1="48.19" x2="401.29" y2="48.19" gradientTransform="translate(49.4 -149.32) rotate(22.74)" xlink:href="#linear-gradient"/><linearGradient id="linear-gradient-9" x1="383.98" y1="44.97" x2="405.39" y2="44.97" xlink:href="#linear-gradient"/><linearGradient id="linear-gradient-10" x1="395.19" y1="53.64" x2="401.48" y2="53.64" xlink:href="#linear-gradient"/><linearGradient id="linear-gradient-11" x1="409.96" y1="88.89" x2="415.03" y2="88.89" gradientTransform="translate(66.42 -152.54) rotate(22.74)" xlink:href="#linear-gradient"/><linearGradient id="linear-gradient-12" x1="411.48" y1="79.01" x2="415.19" y2="79.01" xlink:href="#linear-gradient"/><linearGradient id="linear-gradient-13" x1="411.6" y1="93.6" x2="430.82" y2="93.6" xlink:href="#linear-gradient"/><linearGradient id="linear-gradient-14" x1="411.46" y1="88.89" x2="413.53" y2="88.89" gradientTransform="translate(66.43 -152.55) rotate(22.74)" xlink:href="#linear-gradient"/><linearGradient id="linear-gradient-15" x1="607.06" y1="227.74" x2="768.57" y2="227.74" xlink:href="#linear-gradient"/><linearGradient id="linear-gradient-16" x1="635.32" y1="258.3" x2="796.82" y2="258.3" xlink:href="#linear-gradient"/><linearGradient id="linear-gradient-17" x1="320.59" y1="30.56" x2="340.58" y2="209.56" xlink:href="#linear-gradient"/><linearGradient id="linear-gradient-18" x1="138.17" y1="-0.99" x2="158.16" y2="178.02" xlink:href="#linear-gradient"/><linearGradient id="Íîâûé_îáðàçåö_ãðàäèåíòà_9-3" x1="482.33" y1="-39.43" x2="502.32" y2="139.58" xlink:href="#Íîâûé_îáðàçåö_ãðàäèåíòà_9"/><linearGradient id="Íîâûé_îáðàçåö_ãðàäèåíòà_7" x1="291.19" y1="-29.45" x2="338.8" y2="211.45" xlink:href="#linear-gradient"/><linearGradient id="Íîâûé_îáðàçåö_ãðàäèåíòà_7-2" x1="442.52" y1="-59.36" x2="490.13" y2="181.54" xlink:href="#linear-gradient"/><linearGradient id="Íîâûé_îáðàçåö_ãðàäèåíòà_7-3" x1="414.26" y1="-53.77" x2="461.87" y2="187.12" xlink:href="#linear-gradient"/><linearGradient id="Íîâûé_îáðàçåö_ãðàäèåíòà_8" x1="254" y1="306.34" x2="260.51" y2="379.65" gradientUnits="userSpaceOnUse"><stop offset="0" stop-color="#c9cd55"/><stop offset="0.51" stop-color="#659c52"/><stop offset="1" stop-color="#287f50"/></linearGradient><linearGradient id="Íîâûé_îáðàçåö_ãðàäèåíòà_7-4" x1="239.09" y1="521.8" x2="249.09" y2="521.8" xlink:href="#linear-gradient"/><linearGradient id="Íîâûé_îáðàçåö_ãðàäèåíòà_7-5" x1="281.91" y1="520.66" x2="305.98" y2="520.66" xlink:href="#linear-gradient"/><linearGradient id="Íîâûé_îáðàçåö_ãðàäèåíòà_8-2" x1="277.23" y1="304.27" x2="283.74" y2="377.59" xlink:href="#Íîâûé_îáðàçåö_ãðàäèåíòà_8"/><linearGradient id="Íîâûé_îáðàçåö_ãðàäèåíòà_8-3" x1="611.67" y1="387.02" x2="657.06" y2="254.98" xlink:href="#Íîâûé_îáðàçåö_ãðàäèåíòà_8"/><linearGradient id="Íîâûé_îáðàçåö_ãðàäèåíòà_9-4" x1="409.1" y1="324.46" x2="632.24" y2="324.46" xlink:href="#Íîâûé_îáðàçåö_ãðàäèåíòà_9"/><linearGradient id="Íîâûé_îáðàçåö_ãðàäèåíòà_8-4" x1="632.41" y1="285.36" x2="669.54" y2="390.1" xlink:href="#Íîâûé_îáðàçåö_ãðàäèåíòà_8"/><linearGradient id="Íîâûé_îáðàçåö_ãðàäèåíòà_8-5" x1="313.86" y1="352.67" x2="332.58" y2="323.95" xlink:href="#Íîâûé_îáðàçåö_ãðàäèåíòà_8"/><linearGradient id="linear-gradient-19" x1="378.53" y1="521.25" x2="408.97" y2="521.25" xlink:href="#linear-gradient"/><linearGradient id="linear-gradient-20" x1="340.39" y1="521.32" x2="370.96" y2="521.32" xlink:href="#linear-gradient"/><linearGradient id="Íîâûé_îáðàçåö_ãðàäèåíòà_11" x1="382.29" y1="378.4" x2="329.92" y2="466.95" gradientUnits="userSpaceOnUse"><stop offset="0" stop-color="#00503e"/><stop offset="1" stop-color="#023222"/></linearGradient><linearGradient id="Íîâûé_îáðàçåö_ãðàäèåíòà_11-2" x1="398.31" y1="387.87" x2="345.94" y2="476.42" xlink:href="#Íîâûé_îáðàçåö_ãðàäèåíòà_11"/><linearGradient id="Íîâûé_îáðàçåö_ãðàäèåíòà_8-6" x1="385.96" y1="266.74" x2="352.4" y2="350.29" xlink:href="#Íîâûé_îáðàçåö_ãðàäèåíòà_8"/><linearGradient id="Íîâûé_îáðàçåö_ãðàäèåíòà_8-7" x1="424.89" y1="381.53" x2="396.56" y2="335.82" xlink:href="#Íîâûé_îáðàçåö_ãðàäèåíòà_8"/><linearGradient id="linear-gradient-21" x1="538.14" y1="69.21" x2="598.78" y2="69.21" gradientTransform="translate(136.4 -306.64) rotate(34.08)" xlink:href="#linear-gradient"/><linearGradient id="linear-gradient-22" x1="562.88" y1="65.94" x2="569.86" y2="65.94" xlink:href="#linear-gradient"/><linearGradient id="linear-gradient-23" x1="567.36" y1="66.77" x2="577.95" y2="66.77" xlink:href="#linear-gradient"/><linearGradient id="linear-gradient-24" x1="49.63" y1="179.87" x2="145.35" y2="179.87" xlink:href="#linear-gradient"/><linearGradient id="Íîâûé_îáðàçåö_ãðàäèåíòà_9-5" x1="341.87" y1="-23.74" x2="361.87" y2="155.27" xlink:href="#Íîâûé_îáðàçåö_ãðàäèåíòà_9"/><linearGradient id="Íîâûé_îáðàçåö_ãðàäèåíòà_7-6" x1="94.02" y1="9.52" x2="141.62" y2="250.41" xlink:href="#linear-gradient"/></defs><title>question</title><path d="M831.17,524.83H189.82a2.15,2.15,0,0,0-2.17,2,2.11,2.11,0,0,0,2.1,2.25H831.17a2.11,2.11,0,0,0,2.11-2.11h0A2.11,2.11,0,0,0,831.17,524.83Z" transform="translate(-187.64 -30.96)" style="fill:url(#Íîâûé_îáðàçåö_ãðàäèåíòà_9)"/><path d="M425.85,120.81a34.57,34.57,0,1,1,18.52-45.24A34.61,34.61,0,0,1,425.85,120.81Z" transform="translate(-187.64 -30.96)" style="fill:url(#Íîâûé_îáðàçåö_ãðàäèåíòà_9-2)"/><path d="M425.51,120a33.67,33.67,0,1,1,18-44.07A33.71,33.71,0,0,1,425.51,120Z" transform="translate(-187.64 -30.96)" style="fill:url(#linear-gradient)"/><circle cx="412.55" cy="89.07" r="27.49" transform="translate(-190.01 135.43) rotate(-22.74)" style="fill:#fff"/><path d="M422.57,113a26.06,26.06,0,1,1,14-34.11A26.09,26.09,0,0,1,422.57,113Z" transform="translate(-187.64 -30.96)" style="fill:#fff"/><path d="M391.16,96.38l-4.3,1.8a1.39,1.39,0,1,0,1.07,2.56l4.3-1.8A1.39,1.39,0,1,0,391.16,96.38Z" transform="translate(-187.64 -30.96)" style="fill:url(#linear-gradient-2)"/><path d="M420.68,108.46a1.39,1.39,0,0,0-.74,1.82l1.8,4.3a1.39,1.39,0,0,0,2.56-1.07l-1.8-4.3A1.39,1.39,0,0,0,420.68,108.46Z" transform="translate(-187.64 -30.96)" style="fill:url(#linear-gradient-3)"/><path d="M437.07,77.14l-4.3,1.8a1.39,1.39,0,1,0,1.07,2.56l4.3-1.8A1.39,1.39,0,1,0,437.07,77.14Z" transform="translate(-187.64 -30.96)" style="fill:url(#linear-gradient-4)"/><path d="M401.44,62.55a1.39,1.39,0,0,0-.74,1.82l1.8,4.3a1.39,1.39,0,0,0,2.56-1.07l-1.8-4.3A1.39,1.39,0,0,0,401.44,62.55Z" transform="translate(-187.64 -30.96)" style="fill:url(#linear-gradient-5)"/><rect x="411.69" y="44.45" width="7.1" height="7.9" rx="0.81" ry="0.81" transform="translate(150.2 428.27) rotate(-85.98)" style="fill:url(#linear-gradient-6)"/><rect x="378.09" y="58.91" width="7.9" height="7.1" rx="0.81" ry="0.81" transform="translate(-101.23 281.43) rotate(-49.5)" style="fill:url(#linear-gradient-7)"/><rect x="391.22" y="45.43" width="9.62" height="5.52" rx="0.79" ry="0.79" transform="translate(-175.49 125.85) rotate(-22.74)" style="fill:url(#linear-gradient-8)"/><path d="M395.34,53.6a8.65,8.65,0,1,1,5-2.11l0.83,2a10.7,10.7,0,1,0-5,2.11Z" transform="translate(-187.64 -30.96)" style="fill:url(#linear-gradient-9)"/><path d="M398.86,56.41q1.3-.54,2.61-1l-2.2-5.24-4.09,1.72,2.17,5.18Q398.1,56.73,398.86,56.41Z" transform="translate(-187.64 -30.96)" style="fill:url(#linear-gradient-10)"/><circle cx="412.5" cy="88.89" r="2.54" transform="translate(-189.94 135.4) rotate(-22.74)" style="fill:url(#linear-gradient-11)"/><path d="M415.19,68.16L413.38,89a1,1,0,0,1-1.9-.17C411.49,88.75,411.33,89.67,415.19,68.16Z" transform="translate(-187.64 -30.96)" style="fill:url(#linear-gradient-12)"/><path d="M430.82,99.2l-18.69-9.39a1,1,0,1,1,.86-1.7Z" transform="translate(-187.64 -30.96)" style="fill:url(#linear-gradient-13)"/><circle cx="412.5" cy="88.89" r="1.04" transform="translate(-189.94 135.42) rotate(-22.74)" style="fill:url(#linear-gradient-14)"/><path d="M669.62,238.59a1,1,0,0,0-1-.31c-1.83.49-5.13-.24-6.77-0.81L660,228.65c1.29-1.16,4-3.12,5.92-3.38a1,1,0,0,0,.83-0.68l2.25-6.7a1,1,0,0,0-.25-1c-1.34-1.33-2.36-4.57-2.68-6.27l6.75-6c1.65,0.53,4.73,1.94,5.89,3.44a1,1,0,0,0,1,.37l6.93-1.4a1,1,0,0,0,.78-0.73c0.49-1.83,2.78-4.32,4.09-5.46l8.53,2.87c0.36,1.69.68,5.07,0,6.82a1,1,0,0,0,.18,1.06l4.68,5.3a1,1,0,0,0,1,.31c1.83-.49,5.13.24,6.77,0.81l1.78,8.82c-1.29,1.16-4,3.12-5.92,3.38a1,1,0,0,0-.83.68l-2.25,6.7a1,1,0,0,0,.25,1c1.34,1.33,2.36,4.57,2.68,6.27l-6.75,6c-1.65-.53-4.73-1.94-5.89-3.44a1,1,0,0,0-1-.37l-6.93,1.4a1,1,0,0,0-.78.73c-0.49,1.83-2.78,4.33-4.09,5.46l-8.53-2.87c-0.36-1.69-.68-5.07,0-6.82a1,1,0,0,0-.18-1.06Zm19.4-2.16a8.86,8.86,0,1,0-10.44-6.93A8.86,8.86,0,0,0,689,236.43Zm1.12,5.57A14.54,14.54,0,1,0,673,230.62,14.54,14.54,0,0,0,690.14,242Z" transform="translate(-187.64 -30.96)" style="fill:url(#linear-gradient-15)"/><path d="M730,275.27a0.8,0.8,0,0,1,.62-0.58l5.49-1.11a0.8,0.8,0,0,1,.79.3c0.92,1.19,3.36,2.3,4.66,2.72l5.34-4.71c-0.26-1.35-1.06-3.91-2.12-5a0.81,0.81,0,0,1-.19-0.83l1.78-5.31a0.8,0.8,0,0,1,.65-0.54c1.48-.2,3.67-1.75,4.69-2.67l-1.41-7c-1.3-.45-3.91-1-5.36-0.64a0.8,0.8,0,0,1-.81-0.24l-3.7-4.2a0.8,0.8,0,0,1-.14-0.84c0.57-1.39.32-4.06,0-5.4L733.6,237c-1,.9-2.85,2.87-3.24,4.32a0.8,0.8,0,0,1-.62.58L724.25,243a0.8,0.8,0,0,1-.79-0.3c-0.92-1.19-3.36-2.3-4.66-2.72l-5.34,4.71c0.26,1.35,1.06,3.91,2.12,5a0.8,0.8,0,0,1,.19.83L714,255.8a0.81,0.81,0,0,1-.65.54c-1.48.2-3.67,1.75-4.69,2.67l1.41,7c1.29,0.45,3.91,1,5.36.64a0.8,0.8,0,0,1,.81.24l3.7,4.2a0.8,0.8,0,0,1,.14.84c-0.57,1.39-.32,4.06,0,5.4l6.75,2.27C727.83,278.7,729.65,276.72,730,275.27Zm1.89-8.42a8.73,8.73,0,1,1,6.83-10.28A8.73,8.73,0,0,1,731.92,266.85Z" transform="translate(-187.64 -30.96)" style="fill:url(#linear-gradient-16)"/><path d="M340.92,159.18l-6.1-2.3-5.35,3.72a0.9,0.9,0,0,1-1.41-.78l0.3-6.51-5.19-3.94a0.9,0.9,0,0,1,.3-1.58l6.29-1.73,2.14-6.16a0.9,0.9,0,0,1,1.59-.2l3.58,5.45,6.52,0.14a0.9,0.9,0,0,1,.68,1.46l-4.07,5.09,1.89,6.24A0.9,0.9,0,0,1,340.92,159.18Z" transform="translate(-187.64 -30.96)" style="fill:url(#linear-gradient-17)"/><polygon points="162.6 89.26 159.29 80.36 150.81 82.89 147.15 74.27 138.75 75.69 134.96 69.68 131.92 71.6 136.99 79.64 144.95 78.29 148.75 87.26 157.09 84.76 160.1 92.83 162.6 89.26" style="fill:url(#linear-gradient-18)"/><polygon points="519.04 130.24 510.7 125.68 505.95 133.14 497.54 129.01 492.12 135.59 485.32 133.52 484.28 136.96 493.37 139.72 498.51 133.49 507.25 137.79 511.93 130.45 519.48 134.58 519.04 130.24" style="fill:url(#Íîâûé_îáðàçåö_ãðàäèåíòà_9-3)"/><polygon points="299.44 18.06 295.87 26.86 303.84 30.72 300.71 39.55 307.88 44.17 306.62 51.16 310.15 51.8 311.84 42.45 305.05 38.07 308.31 28.89 300.47 25.09 303.7 17.11 299.44 18.06" style="fill:url(#Íîâûé_îáðàçåö_ãðàäèåíòà_7)"/><polygon points="509.5 245.05 507.74 241.6 503.8 241.73 502.11 237.72 497.95 239.16 495.84 234.71 491.85 235.56 489.12 231.62 490.61 230.58 492.65 233.53 496.87 232.64 498.89 236.91 503.12 235.45 504.99 239.87 508.84 239.74 510.46 242.94 512.98 242.33 513.41 244.09 509.5 245.05" style="fill:url(#Íîâûé_îáðàçåö_ãðàäèåíòà_7-2)"/><polygon points="436.57 85.19 434.73 79.7 443.23 75.76 441.52 67.41 447.4 63.42 445.38 60.45 437.52 65.78 439.13 73.69 430.3 77.8 433.07 86.05 436.57 85.19" style="fill:url(#Íîâûé_îáðàçåö_ãðàäèåíòà_7-3)"/><path d="M692.29,103.5c9.37,14.32-3.37,34.19-20.06,31.24a12.64,12.64,0,0,0-8.8,1.81l-9.23,5.69a5.32,5.32,0,0,1-7.34-1.56l-3.55-5.42a6,6,0,0,1,1.21-7.8c8.34-7.15,11.89-9.17,13-15.16C660.82,94.75,682.92,89.18,692.29,103.5Z" transform="translate(-187.64 -30.96)" style="fill:#edfdfc"/><path d="M670.29,111.37a17.66,17.66,0,0,1-.44-2.52c-0.43-5,3.44-6.74,5.48-5.45a3.69,3.69,0,0,1,1.08,4.56c-0.67,1.63-2.14,2.81-3.62,4.11a24.17,24.17,0,0,0,3.71,7.62c4.56-2.75,7.82-1.25,8,1.24a4.06,4.06,0,0,1-2.43,3.92c-0.92.4-3.31,1-6.14-2.17-7.7,5.43-17.75,13.46-17.78,13.48l-1.28-1.77s10-8,17.7-13.42a26.24,26.24,0,0,1-3.67-7.26c-8.78,7.66-16.51,13.72-16.78,13.94l-1.27-1.78C653.44,125.41,660.94,119.58,670.29,111.37Zm3.7-6.1c-0.68-.26-2.49.49-1.76,4.39C674.26,107.89,674.88,107.11,674,105.28Zm3.93,16.14c1.12,1.17,2.82,2.22,4,1C683.34,120.76,681.25,119.54,677.92,121.41Z" transform="translate(-187.64 -30.96)" style="fill:#b7d972"/><path d="M663.66,136.41l-0.24.13-9.23,5.69a5.32,5.32,0,0,1-7.34-1.56l-3.55-5.42a6,6,0,0,1,1.21-7.8c3.71-3.18,6.47-5.34,8.5-7.3Z" transform="translate(-187.64 -30.96)" style="fill:#b7d972"/><path d="M249.49,405.21s-0.3-1.47-.36-2-0.16-2.34-.16-2.34,0-6.13.45-6.09a2.62,2.62,0,0,1,1.17,1.47c0.13,0.38.32,0.81,0.46,1.19a0.78,0.78,0,0,0,1,.46c0.48-.13.28-1.76,0.1-2.3a63.42,63.42,0,0,0-3.23-6.42c-0.28-.55,1.67-11.18,2.05-14.87h0c0.8-6,1.93-12.19,2-12.83l10.74-23.74-7.17-7.32S244.28,356.63,243.81,358c-0.22.66-1,14.78-1,14.78,0.06,7,.12,13.13.1,14.31,0,0-1,3.52-1.79,5.72a20.18,20.18,0,0,0-.73,5.19,15,15,0,0,0-.19,5.1c0.32,2.4,1.12,0,1.12,0s0.21-4.56.57-4.49,0,2.54.35,5.2c0.08,0.68.17,1.36,0.25,2,0.22,1.62,1.29,1.94,1.33.2a16.24,16.24,0,0,0-.09-2.36,13.49,13.49,0,0,1,0-2.22,17.74,17.74,0,0,1,.06-2.29c0.07,0,.26-0.23.38,0.5s0,2.78.31,4c0.17,0.72.43,2.23,0.43,2.23a15.38,15.38,0,0,0,.84,2.4c0.8,0,.8-1.91.44-2.85a10.91,10.91,0,0,0-.24-2.31s0.08-3.36.56-3.37,1.78,8.07,2.57,8S249.49,405.21,249.49,405.21Z" transform="translate(-187.64 -30.96)" style="fill:#f7a491"/><path d="M259.37,351.52a51,51,0,0,1-6.82-1.65c-3.15-1.17-5.23-2.2-5.23-2.2s3.46-14.81,7.78-23.81c1.79-3.72,3.59-5.51,6.11-5.94,0,0,5.31,3.48,5.1,11.88C266.26,331.77,259.37,351.52,259.37,351.52Z" transform="translate(-187.64 -30.96)" style="fill:url(#Íîâûé_îáðàçåö_ãðàäèåíòà_8)"/><path d="M273.08,401.31l5.78,53.15S276,465.7,276.38,468.9,282.66,514,282.66,514l-0.25,2.35v6.94h22a98.49,98.49,0,0,1-11.22-6.42,4.66,4.66,0,0,1-1.87-3.33c-1.75-12.91,1.71-56,1.71-56l2.72-56.06Z" transform="translate(-187.64 -30.96)" style="fill:#f7a491"/><path d="M255.36,412.49c-1.24.32-3.16,46-4.19,48.05-6.54,12.84-8.09,51.89-8.09,51.89l-1.9,5.56-2,6.82s6.53,1.79,10-.16l-0.38-6.72-0.35-6.15,16.49-48.64,9-49.62Z" transform="translate(-187.64 -30.96)" style="fill:#f7a491"/><path d="M288.16,324c-2.66-3.74-13.64-14.59-14.86-14.56-3.55.06-15.22,0.07-17.5,1.26v2.55A137.44,137.44,0,0,0,260.21,347c2,7.7,3.9,15.93,3.66,18.88l0.06,0.06a15.83,15.83,0,0,0,23.57-1.17h0a140.37,140.37,0,0,1,.92-15.66C289.92,337.46,294.77,333.25,288.16,324Z" transform="translate(-187.64 -30.96)" style="fill:#b7d972"/><path d="M269.73,297.77s0.31,7.62-.36,10.5-1.55,3.11,4.15,4c2.24,0.35,4.4.86,4.4,0.86s-0.59-4.24-.67-6c-0.15-2.95.66-12.05,0.66-12.05Z" transform="translate(-187.64 -30.96)" style="fill:#f7a491"/><path d="M274.08,301.56a10,10,0,0,0,3.28,1.2c0.19-3.6.56-7.72,0.56-7.72l-7.81,2.61A10.39,10.39,0,0,0,274.08,301.56Z" transform="translate(-187.64 -30.96)" style="fill:#f47458"/><path d="M271.54,276.44a10,10,0,0,0-5.06,4.74c-1.8,3.59-2.47,13.68,4.62,17.63,3.51,2,7.56,2.32,9.47.61s1.71-5.65,1.51-8.89C281.7,284.11,280.29,274.4,271.54,276.44Z" transform="translate(-187.64 -30.96)" style="fill:#f7a491"/><path d="M266.32,289.11c0.4,1.68-.13,3.31-1.2,3.63s-2.26-.78-2.66-2.47,0.13-3.31,1.2-3.63S265.91,287.42,266.32,289.11Z" transform="translate(-187.64 -30.96)" style="fill:#f7a491"/><path d="M248.72,517.9a10.56,10.56,0,0,1-7.54.09l-2.09,6.84s6.57,1.95,10,0Z" transform="translate(-187.64 -30.96)" style="fill:url(#Íîâûé_îáðàçåö_ãðàäèåíòà_7-4)"/><path d="M251.58,439.63h0Z" transform="translate(-187.64 -30.96)" style="fill:#f47458"/><path d="M282.17,525h22.92a0.81,0.81,0,0,0,.76-1.23c-0.61-.91-3.28-1.57-6.28-3-5.27.57-16.33-3.17-17.16-4.43C281.92,518.84,281.7,524.89,282.17,525Z" transform="translate(-187.64 -30.96)" style="fill:url(#Íîâûé_îáðàçåö_ãðàäèåíòà_7-5)"/><path d="M328.2,341.27c0.44-.62,1.93-3.64,1.93-3.64s1.54-5.17,1.22-5.1a5.75,5.75,0,0,0-1.58,2.34c-0.46,1-1,2.63-1.44,3.46-0.83,1.45-1.77,2.06-1.54,1.5,0.17-.41.74-0.74,1.24-1.61,1.23-2.12,2.31-5.58,1.84-5.51s-1.6,2.45-2.91,4.3a13.55,13.55,0,0,1-3.22,2.47,4.38,4.38,0,0,1,.21-1.14c0.13-.4,1.95-2.82,1.24-3.12s-5,4.93-5,4.93l-1.78,3-0.16.12h0s-21.61,8.47-22.34,8.25c-1.7-.54-7.51-17.38-7.51-17.38l-12.09,2.18c-0.17-.09,12.71,25.06,15.12,26.29,2.11,1.08,24.58-10.62,28.8-13.13,5.81-2.24,8.08-4.9,9-6.26,0.51-.73,2.45-3.91,2.45-3.91s0.42-4.41.1-4.45c-1.07-.13-1.36,4-1.36,4s-1.44,2-1.69,2.22C328.09,341.76,328.2,341.27,328.2,341.27Z" transform="translate(-187.64 -30.96)" style="fill:#f8a492"/><path d="M268.47,319.48c-1.65,7,7.15,22.59,7.15,22.59s12.54-6.09,14.75-8.72c0,0-8.65-14.28-9.19-15.21-1.16-2-5.22-6.18-8-5.41C271.48,313.22,268.47,319.48,268.47,319.48Z" transform="translate(-187.64 -30.96)" style="fill:url(#Íîâûé_îáðàçåö_ãðàäèåíòà_8-2)"/><path d="M270.46,302.23c0.94-6.42,11.58-19.5,7.47-25-3.33-4.42-9.13-3.1-12.82-1.83-16.76,5.77-15.8,26.83-21.09,30.13-9.59,6-15.49,9.69-16.18,23.15-0.82,16,12.73,24.11,29,20.21,8.76-2.1,11.09-5,14.6-13.24,1.58-3.73,4.78-15.37,3.91-21.05C274.6,309.54,269.7,307.4,270.46,302.23Z" transform="translate(-187.64 -30.96)" style="fill:#473b1e"/><ellipse cx="87.65" cy="259.51" rx="1.54" ry="3.44" style="fill:#f7a491"/><path d="M297.84,435.88l0.78-31.53a62.41,62.41,0,0,0-5.16-25.86l-6-13.68a36.05,36.05,0,0,1-7.22,1.75c-5.51.64-10.93,0-16.41-.64a4.34,4.34,0,0,1-.08.56c-1,4.64-6.53,15-8.87,29.15-2.65,16.06-3.64,40.09-3.31,42C276.95,438.75,283,439.67,297.84,435.88Z" transform="translate(-187.64 -30.96)" style="fill:#473b1e"/><path d="M613.32,278l19.08,19.08S668.72,311.3,672.78,320s-3.65,8.32-12.18,7.1-32.67-16.23-32.67-16.23l-22.12-25.57Z" transform="translate(-187.64 -30.96)" style="fill:url(#Íîâûé_îáðàçåö_ãðàäèåíòà_8-3)"/><path d="M669.16,316.2l-4.72-1.67-9.13,4.26s-4.72,3.2-7,11.11,0,55.25,3.81,62.86S669.16,316.2,669.16,316.2Z" transform="translate(-187.64 -30.96)" style="fill:#edfdfc"/><path d="M699.11,506s3.35,2.16,3.63,3.15,2.74,11.75,1.81,13-4.29.64-3,1.55c1,0.69,7.37,1.21,11.44.11,1.19-.32.65-10.38,0.82-11.91,0.25-2.22,1.79-7.27.86-8.59-0.46-.64-3.07-1.77-5.43-2.69A19.48,19.48,0,0,1,704,497Z" transform="translate(-187.64 -30.96)" style="fill:#f7a491"/><path d="M709.06,500.56s-2,19.08-4.3,20.49c-0.62.37-3.88,0.65-4.18,2.21,0,0-.08,1.6.91,1.64l12.37,0s0.13-9.38.05-13.06c0,0,1.71-9.38,1.15-10.08S709.06,500.56,709.06,500.56Z" transform="translate(-187.64 -30.96)" style="fill:#002a24"/><path d="M747.51,506s3.35,2.16,3.63,3.15,2.73,11.75,1.81,13-4.29.64-3,1.55c1,0.69,7.37,1.21,11.44.11,1.19-.32.65-10.38,0.82-11.91,0.25-2.22,1.79-7.27.86-8.59-0.46-.64-3.07-1.77-5.43-2.69a19.48,19.48,0,0,1-5.23-3.7Z" transform="translate(-187.64 -30.96)" style="fill:#f7a491"/><path d="M686.77,382s11.31,22.45,13.63,28.48l17.23,43.72,38,44.71s-2.78,7.18-7,9.11c0,0-45.82-37-49.59-42.83-5.75-8.88-31.91-63.3-31.91-63.3l-4.86-10.47Z" transform="translate(-187.64 -30.96)" style="fill:#473b1e"/><path d="M659.44,381.78l0.18,19.15s-8.18,62.54-6.6,66.26c3.87,9.06,46.37,39.77,46.37,39.77l5.78-9.94-30.54-34.09,11.57-33.18c3.24-7.71,10.12-22.6,9.95-31C696,391.62,681.8,375,681.8,375Z" transform="translate(-187.64 -30.96)" style="fill:#473b1e"/><path d="M677.78,408.29c11.26-2.56,20.38-6.54,21.31-9.68,0.42-1.42-5.86-15.71-10.48-34.78-1.51-6.23-1.24-12.08-3.65-33.89-0.51-4.63-2.43-14.32-9.59-16.83a10.76,10.76,0,0,0-3.92-.77c-0.06,0-9.12.07-13.26,2.37-1,1.39-4.83,9-5.85,29.68-0.44,9-2.25,38.05-1.88,42.77q0.08,1,.21,2C652.29,401.73,665.47,411.09,677.78,408.29Z" transform="translate(-187.64 -30.96)" style="fill:#b7d972"/><path d="M656.89,330.65h0c4.59-.51,16.14-15.64,16.14-15.64l0,0-7.12-11.28s-10.49,1.91-8.44,5.11,3.2,10.86,3.2,10.86-0.08.19-.14,0.32C659.81,321.54,657.45,326.18,656.89,330.65Z" transform="translate(-187.64 -30.96)" style="fill:#f7a491"/><path d="M657.47,308.8c-2.05-3.19,8.44-5.1,8.44-5.1l0.59,0.94a6.11,6.11,0,0,1-.29,2.14,13.71,13.71,0,0,1-6.69,7.37A20.33,20.33,0,0,0,657.47,308.8Z" transform="translate(-187.64 -30.96)" style="fill:#fe875e"/><path d="M660,285.85c0.23-.21,8.19,12.88,6.27,18.27s-8.34,9.69-12.16,7.77c-4.22-2.13-10.61-17.14-6.76-23.51S660,285.85,660,285.85Z" transform="translate(-187.64 -30.96)" style="fill:#f7a491"/><path d="M648.46,280c4.68-1,13.05.38,17.76,3.69,5.79,4.08,6,11.31,3.37,16s-1,8.21-1,8.21-8.14-.51-9.79-6.05c-0.69-2.33.17-3.9-1.4-5.21-1.2-1-2.22-3.95-3.41-6.31,0,0-5.25-2.79-7.25-.49C646,290.63,642.45,281.27,648.46,280Z" transform="translate(-187.64 -30.96)" style="fill:#473b1e"/><ellipse cx="658.35" cy="296.91" rx="1.95" ry="3.35" transform="translate(-251.19 244.85) rotate(-22.6)" style="fill:#f7a491"/><path d="M757.51,500.59s-2,19.06-4.35,20.47c-0.62.37-3.88,0.65-4.18,2.21,0,0-.1,1.65.91,1.62l12.35,0s0.14-9.38.06-13.06c0,0,1.71-9.38,1.15-10.08S757.51,500.59,757.51,500.59Z" transform="translate(-187.64 -30.96)" style="fill:#002a24"/><path d="M484.35,412.51c-9.82-20.54-12.52-51.19-1.81-75.5,18-41,67.68-57.78,64-104.29-0.92-11.71-6.13-21.14-13.81-27.2-20.2-16-52.71-7.51-75.91,3.63a145.39,145.39,0,0,0-41.28,30.29L409.1,157.3c27.85-19.76,61.55-30.09,95.18-32.74,68.92-5.42,122.14,20.43,127.56,89.37,4.94,62.88-37.55,90.73-66.05,122.16C550,353.55,546.39,367,547.62,382.56c0.63,8,3.65,18,8.5,24.32Zm49.49,112.32c-67,5.26-74.75-84.74-7.08-90.06C593.42,429.54,600.57,519.59,533.83,524.84Z" transform="translate(-187.64 -30.96)" style="fill:url(#Íîâûé_îáðàçåö_ãðàäèåíòà_9-4)"/><path d="M603.11,282.17c-0.12-.57.34-0.12-0.52-4.56a8.36,8.36,0,0,0-1.64-3.35,7.65,7.65,0,0,0-1.52-1.33,0.76,0.76,0,0,0-1.21.71c0.15,0.42.94,1.88,1.1,2.3a2.23,2.23,0,0,1-.13,1.8c-0.35.34-5.9-6-6.24-6.58a22,22,0,0,1-1-2.54s-0.48-1.51-1.07-1.12c-0.39.25-.81,1.49,0.3,3.94,1,2.13,2.32,3.84,2.16,4-0.4.33-2.81-2.56-2.81-2.56a12.7,12.7,0,0,0-1.41-2.18c-0.36-1.07-1-2.4-1.7-1.88a13.85,13.85,0,0,0,.33,2.37s0.84,1.51,1.2,2.25c0.63,1.31,2.07,2.89,2.56,3.75s0,0.54,0,.63a18.73,18.73,0,0,1-1.59-1.89,15.64,15.64,0,0,1-1.59-1.91,18.89,18.89,0,0,0-1.57-2.12c-1.25-1.49-1.91-.48-1,1.09l1.17,1.9c1.58,2.55,3.53,4.54,3.34,4.78s-3.6-3.53-3.6-3.53-2.36-1.58-1,.74a23.78,23.78,0,0,0,3.48,4.48c0.56,0.48,2,2.77,4.22,4.15s5.71,3.48,5.71,3.48c0.41,0.49,1.44,2.08,2.87,4.34l5.28-6.36A41.36,41.36,0,0,1,603.11,282.17Z" transform="translate(-187.64 -30.96)" style="fill:#f8a492"/><path d="M598.94,291.14l7.31-6.39,25.09,24.76s38.84,3.4,38.94,3.43l1.56,0.49c14.09,4.87,8.29,16.36,5.57,18.14-6.32,4.14-41.44,1.66-52.69-5.32C615.45,320.5,598.94,291.14,598.94,291.14Z" transform="translate(-187.64 -30.96)" style="fill:url(#Íîâûé_îáðàçåö_ãðàäèåíòà_8-4)"/><path d="M337.5,326.64a8.4,8.4,0,0,0,.8,2.06c2.29,4.46,7.62,10.82,7.62,10.82l4.12-9.9s-0.67-3.11-1.84-7.56C344.22,323.17,340.43,323.81,337.5,326.64Z" transform="translate(-187.64 -30.96)" style="fill:#f8a492"/><path d="M361.12,318s-23,10.56-23.72,10.36c-0.48-.13-9.42-16.11-9.52-31.14,0-6.94,6.71-15.29,14.24-13.64,3.79,0.83,3.73,2,9.35,10.66S361.12,318,361.12,318Z" transform="translate(-187.64 -30.96)" style="fill:url(#Íîâûé_îáðàçåö_ãðàäèåíòà_8-5)"/><path d="M380.73,507.34s-0.55,9.63-.55,9.65c-0.2,1.22-1,4.24-1,5.35,0,4.18,18.58-3.54,14.41-5.39-0.38-.17-2.35-1.43-2.47-2.86-0.19-2.19-.68-6.62-0.68-6.62Z" transform="translate(-187.64 -30.96)" style="fill:#f7a491"/><path d="M393.56,516.91a67,67,0,0,1-6.6,1.6c-2.23.32-5.18-2.37-6.76-1.64-1.74.8-1.67,8-1.67,8s23.39,2,30-.07C411.1,524,402.47,519.89,393.56,516.91Z" transform="translate(-187.64 -30.96)" style="fill:url(#linear-gradient-19)"/><path d="M342.73,507.34s-0.55,9.63-.55,9.65c-0.2,1.22-1,4.24-1,5.35,0,4.18,18.58-3.54,14.41-5.39-0.38-.17-2.94-2.38-3.06-3.8-0.19-2.19-.09-5.67-0.09-5.67Z" transform="translate(-187.64 -30.96)" style="fill:#f7a491"/><path d="M355.56,516.91a67,67,0,0,1-6.6,1.6c-2.23.32-5.18-2.37-6.76-1.64-1.74.8-1.81,8-1.81,8s23.49,2.39,30.1-.07C373.06,523.84,364.47,519.89,355.56,516.91Z" transform="translate(-187.64 -30.96)" style="fill:url(#linear-gradient-20)"/><path d="M348.4,332l16.36-24.46c0.07-.21.22-0.65,0.44-1.32,0.82-2.43,2.54-7.48,4-12.5l0-.05c0.47-1.76,1.46-4.82,2.43-7.78,1.07-3.3,2.4-7.38,2.44-8.08l-0.22-.62a59.63,59.63,0,0,1-1.7-7.34c-0.18-1.1-.37-3.76.86-3.76,1.92,0,1,2.66,1.89,4.32a44.21,44.21,0,0,0,1.33-5.54l0.32-5.2c0.06-.39-0.33-3.26,1-3.26h0.06c1.21,0.09,1.18,3.14,1.68,8.3,0.16-.59.32-1.31,0.44-2a20.06,20.06,0,0,1,.41-2.72c-0.24-1.44-.1-3.7,1.33-3.49,0.72,0.11.66,3.27,0.66,3.27,0,0.43,0,3.78,0,4.44,0.15-1.12.72-5.91,1.85-5.91,0.93,0,1,1.29,1,2.31,0,0.6-.6,5.79-0.63,6.39,0.44-.79,1-5.36,1.4-5.36,1.82,0,1.16,6.5.49,8.19a8,8,0,0,0-.21.91,16.7,16.7,0,0,1-1.56,4.84c-1.14,2.09-2.72,5.4-3,5.91-0.18,1-.72,4.76-1.41,9.45l-1,6.48h0c-0.06.49-.4,2.06-1.7,7.94-1.77,8-2,8.39-2,8.54-0.77,1.45-18.41,27-19.16,28.11l-0.44.64Z" transform="translate(-187.64 -30.96)" style="fill:#f7a491"/><path d="M378.84,274.92s-1.33-3.62-3.69-3.63a2.57,2.57,0,0,1,2.45.45C378.73,272.69,378.84,274.92,378.84,274.92Z" transform="translate(-187.64 -30.96)" style="fill:#f47458"/><path d="M344.45,267.92l-2.11,14.22s8,6.88,12.7,5.43c3.93-1.22,1.23-6.69,1.23-6.69s-2.09-7.59-1.45-11.57S344.45,267.92,344.45,267.92Z" transform="translate(-187.64 -30.96)" style="fill:#f7a491"/><path d="M346,272.21a31.21,31.21,0,0,0,9.08,2.73,20.11,20.11,0,0,1-.21-5.65c0.3-1.84-1.89-2.27-4.34-2.21-3.2.29-6,.83-6,0.83l-0.4,2.73A6.67,6.67,0,0,0,346,272.21Z" transform="translate(-187.64 -30.96)" style="fill:#fe875e"/><path d="M334.32,251.52c-0.33,0,3.17,15.88,8.59,18.61s13.51,1.31,15-3c1.68-4.73-4.44-20.93-12.07-23S334.32,251.52,334.32,251.52Z" transform="translate(-187.64 -30.96)" style="fill:#f7a491"/><path d="M340.6,236.93a17.93,17.93,0,0,0-7,8.24c-2,1-4.49,3.26-5.67,9.26-1.45,7.38,3.71,13.06,9.18,14.77s6.4,5.57,6.4,5.57l0.54-4.16a16.76,16.76,0,0,0-3-5.43c-1.83-1.81.87-4.45,1.1-6.61,0.18-1.66-1-4.88-.71-7.6,0,0,3-4.92,6-6.13C352.55,242.77,346.15,233.51,340.6,236.93Z" transform="translate(-187.64 -30.96)" style="fill:#002a24"/><ellipse cx="340.97" cy="262.08" rx="2.07" ry="3.56" transform="translate(-259.21 109.62) rotate(-21.14)" style="fill:#f7a491"/><path d="M363.1,332.36l31.56-5.49s-3.59-9.65-4.87-9.65-23.86,10.52-23.86,10.52l-1.8,3.85Z" transform="translate(-187.64 -30.96)" style="fill:#f8a492"/><path d="M346.93,355.46s-3.15,16.24-1.87,28.56,1.38,56.07,1.38,56.07l-4.9,70,11.62,0.27s13.78-70,13.52-68.17,4.62-49.27,4.62-49.27l-16.42-39Z" transform="translate(-187.64 -30.96)" style="fill:url(#Íîâûé_îáðàçåö_ãðàäèåíòà_11)"/><path d="M350,354.69s-2.05,14.63.51,21,22,69.36,22.26,74.49,6.72,61.85,6.72,61.85l13.51-.41,2.92-63.06-6.12-79.26-5.94-20Z" transform="translate(-187.64 -30.96)" style="fill:url(#Íîâûé_îáðàçåö_ãðàäèåíòà_11-2)"/><path d="M342.34,282.13s3.33,2.33,6.44,2.06,7.5-3.33,7.5-3.33l-0.61-2.21s-8-1.25-8.24-1.11S342.34,282.13,342.34,282.13Z" transform="translate(-187.64 -30.96)" style="fill:#f7a491"/><path d="M377.85,316.75s11.94,12,17.33,10,7.62-9.07-5.53-19.34C377.88,298.2,377.85,316.75,377.85,316.75Z" transform="translate(-187.64 -30.96)" style="fill:#f8a492"/><path d="M385.93,331.59c-1.77-10.3-14.63-42.34-15.65-48.24-0.5-2.87-7.43-2.93-14-2.56-7,.4-13.9,1.34-13.9,1.34s-6.17,1.08-8.89,3.8-3.44,10.23.47,24.49c3.08,11.26,6.9,17.44,8.8,25.64,0.38,2.75.71,5.46,1.15,8.64,0.7,12.26,0,28.46,0,28.46s33.61,7.44,46.19-3.85C390,369.31,387.75,342.14,385.93,331.59Z" transform="translate(-187.64 -30.96)" style="fill:url(#Íîâûé_îáðàçåö_ãðàäèåíòà_8-6)"/><path d="M394.51,309.45s-13.19,11.62-14,11.62c-0.5,0-18.82-14.39-23.05-26.21-2.34-6.53,2.57-13.85,8.17-13.82,3.88,0,5.61,1.08,13.31,8S394.51,309.45,394.51,309.45Z" transform="translate(-187.64 -30.96)" style="fill:url(#Íîâûé_îáðàçåö_ãðàäèåíòà_8-7)"/><rect x="544.85" y="45.6" width="47.22" height="47.22" rx="6.35" ry="6.35" transform="translate(-128.8 299.46) rotate(-34.08)" style="fill:url(#linear-gradient-21)"/><circle cx="568.21" cy="67.88" r="16.18" transform="translate(-128.09 299.09) rotate(-34.08)" style="fill:#fff"/><path d="M562.88,61.23l6.64,7.24a1.3,1.3,0,0,1-1.92,1.76,1.35,1.35,0,0,1-.2-0.28Z" transform="translate(-187.64 -30.96)" style="fill:url(#linear-gradient-22)"/><path d="M567.93,68.52l10-5.61-8.74,7.44a1.12,1.12,0,1,1-1.46-1.71Z" transform="translate(-187.64 -30.96)" style="fill:url(#linear-gradient-23)"/><rect x="49.63" y="154.98" width="95.72" height="49.79" rx="24.9" ry="24.9" style="fill:url(#linear-gradient-24)"/><polygon points="133.99 185.97 157.56 196.54 141.78 174.44 133.99 185.97" style="fill:#b7d972"/><ellipse cx="77.37" cy="178.26" rx="4.13" ry="3.67" style="fill:#fff"/><ellipse cx="96.58" cy="178.26" rx="4.13" ry="3.67" style="fill:#fff"/><ellipse cx="115.79" cy="178.26" rx="4.13" ry="3.67" style="fill:#fff"/><polygon points="342.42 9.8 338.53 1.51 341.76 0 343.96 4.7 349.34 1.44 351.19 4.49 342.42 9.8" style="fill:url(#Íîâûé_îáðàçåö_ãðàäèåíòà_9-5)"/><polygon points="122.5 128.95 113.88 132.02 112.68 128.66 117.57 126.92 114.84 121.25 118.06 119.71 122.5 128.95" style="fill:url(#Íîâûé_îáðàçåö_ãðàäèåíòà_7-6)"/><path d="M667.25,76.47l1.92,6.12c0.5,1.6.87,4.19,2.43,5.09a0.9,0.9,0,0,0,1.23-.32c0.77-1.7-.34-3.88-0.87-5.54l-2-6.11c-0.56-1.74-3.3-1-2.75.76h0Z" transform="translate(-187.64 -30.96)" style="fill:#b7d972"/><path d="M688.85,74.26c-3.31,11.28-3.34,10.94-3.09,12.09a1.22,1.22,0,0,0,2,.53c0.77-.8.58-0.56,3.77-11.88a1.4,1.4,0,0,0-2.71-.75h0Z" transform="translate(-187.64 -30.96)" style="fill:#b7d972"/><path d="M701.46,99.37l5.84-2.8c1.73-.83,4-1.49,5.15-3.07a1.09,1.09,0,0,0-.93-1.63c-1.92-.06-4,1.42-5.66,2.23L700,96.94c-1.63.79-.2,3.21,1.42,2.43h0Z" transform="translate(-187.64 -30.96)" style="fill:#b7d972"/><path d="M695.08,133.26a93.13,93.13,0,0,0,6.26,7.57c1.22,1.27,3-.59,1.9-1.9-2.1-2.52-4.25-5-6.28-7.55-1.06-1.35-2.92.55-1.88,1.88h0Z" transform="translate(-187.64 -30.96)" style="fill:#b7d972"/><path d="M702.43,120.1c1.8,0.79,3.63,1.52,5.46,2.24,1.67,0.65,3.66,1.83,5.47,1.57a1.22,1.22,0,0,0,.53-2c-0.68-.75-1-0.69-5-2.22-1.8-.69-3.58-1.42-5.38-2.09-1.45-.54-2.5,1.89-1.06,2.52h0Z" transform="translate(-187.64 -30.96)" style="fill:#b7d972"/></svg>