<?xml version="1.0" encoding="iso-8859-1"?>
<!-- Generator: Adobe Illustrator 18.0.0, SVG Export Plug-In . SVG Version: 6.00 Build 0)  -->
<!DOCTYPE svg PUBLIC "-//W3C//DTD SVG 1.1//EN" "http://www.w3.org/Graphics/SVG/1.1/DTD/svg11.dtd">
<svg version="1.1" id="Capa_1" xmlns="http://www.w3.org/2000/svg" xmlns:xlink="http://www.w3.org/1999/xlink" x="0px" y="0px"
	 viewBox="0 0 437.87 437.87" style="enable-background:new 0 0 437.87 437.87;" xml:space="preserve">
<g>
	<path style="fill:#88C9B3;" d="M203.797,0L383.73,0c11.406,0,20.653,9.247,20.653,20.653v102.5
		c0,11.406-9.247,20.653-20.653,20.653H274.762l-51.185,32.607v-32.607h-19.78c-11.406,0-20.653-9.247-20.653-20.653v-102.5
		C183.144,9.247,192.391,0,203.797,0z"/>
	<path style="fill:#E77200;" d="M195.447,368.288v69.58H33.487v-69.58c0-26.73,12.95-50.43,32.92-65.17l11.86,43.75l36.2-27
		l36.19,27l11.86-43.76c3.27,2.4,6.35,5.05,9.21,7.92C186.377,325.688,195.447,345.928,195.447,368.288z"/>
	<path style="fill:#E5DCC6;" d="M139.567,291.278l-25.1,28.59l-25.11-28.59c7.91-2.58,16.34-3.97,25.11-3.97
		C123.227,287.308,131.667,288.698,139.567,291.278z"/>
	<path style="fill:#7C6655;" d="M133.767,370.87c-0.49,0-0.98-0.05-1.46-0.15c-0.48-0.09-0.95-0.24-1.41-0.42
		c-0.45-0.19-0.89-0.42-1.29-0.69c-0.41-0.28-0.8-0.59-1.14-0.94c-1.4-1.39-2.2-3.33-2.2-5.3c0-0.49,0.05-0.98,0.15-1.46
		c0.1-0.48,0.24-0.96,0.43-1.41c0.18-0.45,0.42-0.89,0.69-1.29c0.27-0.41,0.58-0.8,0.93-1.14c0.34-0.35,0.73-0.66,1.14-0.94
		c0.4-0.27,0.84-0.5,1.29-0.68c0.46-0.19,0.93-0.34,1.41-0.43c0.96-0.2,1.96-0.2,2.93,0c0.48,0.09,0.95,0.24,1.4,0.43
		c0.45,0.18,0.89,0.41,1.3,0.68c0.41,0.28,0.79,0.59,1.14,0.94c0.34,0.34,0.65,0.73,0.93,1.14c0.27,0.4,0.5,0.84,0.69,1.29
		c0.18,0.45,0.33,0.93,0.43,1.41c0.09,0.48,0.14,0.97,0.14,1.46c0,0.49-0.05,0.98-0.14,1.47c-0.1,0.47-0.25,0.95-0.43,1.4
		c-0.19,0.45-0.42,0.89-0.69,1.29c-0.28,0.41-0.59,0.8-0.93,1.14c-0.35,0.35-0.73,0.66-1.14,0.94c-0.41,0.27-0.85,0.5-1.3,0.69
		c-0.45,0.18-0.92,0.33-1.4,0.42C134.747,370.82,134.257,370.87,133.767,370.87z"/>
	<rect x="232.267" y="47.419" style="fill:#7C6655;" width="122.994" height="15"/>
	<rect x="232.267" y="83.417" style="fill:#7C6655;" width="122.994" height="15"/>
	<circle style="fill:#FCF4DE;" cx="114.466" cy="215.762" r="76.58"/>
	<path style="fill:#E77200;" d="M161.905,222.174c3.561,12.976-4.071,26.382-17.047,29.943
		c-12.976,3.561-26.382-4.071-29.943-17.047L161.905,222.174z"/>
	<path style="fill:#7C6655;" d="M151.767,200.41c-1.97,0-3.91-0.8-5.3-2.2c-1.4-1.39-2.2-3.32-2.2-5.3c0-1.97,0.8-3.91,2.2-5.3
		c0.34-0.35,0.73-0.66,1.14-0.93c0.4-0.27,0.84-0.51,1.29-0.69c0.46-0.19,0.93-0.33,1.41-0.43c0.96-0.2,1.96-0.2,2.93,0
		c0.47,0.1,0.95,0.24,1.4,0.43c0.45,0.18,0.89,0.42,1.29,0.69c0.41,0.27,0.8,0.58,1.14,0.93c1.4,1.39,2.2,3.33,2.2,5.3
		c0,1.98-0.8,3.91-2.2,5.3C155.677,199.61,153.737,200.41,151.767,200.41z"/>
	<path style="fill:#7C6655;" d="M103.767,210.91c-0.49,0-0.98-0.05-1.46-0.15c-0.48-0.09-0.95-0.24-1.41-0.42
		c-0.45-0.19-0.88-0.42-1.29-0.69c-0.41-0.28-0.79-0.59-1.14-0.94c-1.4-1.39-2.2-3.32-2.2-5.3c0-1.97,0.8-3.91,2.2-5.3
		c0.35-0.35,0.73-0.66,1.14-0.93c0.41-0.27,0.84-0.51,1.29-0.69c0.46-0.19,0.93-0.34,1.41-0.43c0.96-0.2,1.96-0.2,2.93,0
		c0.48,0.09,0.95,0.24,1.4,0.43c0.45,0.18,0.89,0.42,1.3,0.69c0.41,0.27,0.79,0.58,1.14,0.93c1.39,1.39,2.19,3.33,2.19,5.3
		c0,1.98-0.8,3.91-2.19,5.3c-0.35,0.35-0.73,0.66-1.14,0.94c-0.41,0.27-0.85,0.5-1.3,0.69c-0.45,0.18-0.92,0.33-1.4,0.42
		C104.747,210.86,104.257,210.91,103.767,210.91z"/>
	<rect x="106.966" y="319.872" style="fill:#C65C05;" width="15" height="117.998"/>
	<path style="fill:#C65C05;" d="M162.517,303.108l-11.86,43.76l-36.19-27l25.1-28.59
		C147.897,293.988,155.627,298.008,162.517,303.108z"/>
	<path style="fill:#C65C05;" d="M89.357,291.278l25.11,28.59l-36.2,27l-11.86-43.75C73.297,298.008,81.027,293.988,89.357,291.278z"
		/>
</g>
<g>
</g>
<g>
</g>
<g>
</g>
<g>
</g>
<g>
</g>
<g>
</g>
<g>
</g>
<g>
</g>
<g>
</g>
<g>
</g>
<g>
</g>
<g>
</g>
<g>
</g>
<g>
</g>
<g>
</g>
</svg>
